<svg width="12" height="24" viewBox="0 0 12 24" fill="none" xmlns="http://www.w3.org/2000/svg">
<path d="M6.01069 3C3.36413 3 1.19804 5.16619 1.19804 7.81275V8.47008H3.12539V7.81275C3.12539 6.2078 4.40579 4.92741 6.01069 4.92741C7.6156 4.92741 8.89599 6.2078 8.89599 7.81275V10.4496C8.04694 9.94223 7.0561 9.64987 5.99977 9.64987C2.87696 9.64987 0.324707 12.2021 0.324707 15.3249C0.324707 18.4478 2.87696 21 5.99977 21C9.12258 21 11.6748 18.4478 11.6748 15.3249C11.6748 14.2332 11.3626 13.2114 10.8234 12.3439V7.81275C10.8234 5.16619 8.65725 3 6.01069 3ZM5.99977 11.5773C8.08093 11.5773 9.74743 13.2438 9.74743 15.3249C9.74743 17.4061 8.08093 19.0726 5.99977 19.0726C3.91861 19.0726 2.25211 17.4061 2.25211 15.3249C2.25211 13.2437 3.91861 11.5773 5.99977 11.5773ZM6.01829 13.752C5.14008 13.752 4.42819 14.4638 4.42819 15.342C4.42819 16.2202 5.14008 16.9321 6.01829 16.9321C6.89649 16.9321 7.60838 16.2202 7.60838 15.342C7.60838 14.4638 6.89644 13.752 6.01829 13.752Z" fill="#575AE5"/>
</svg>
