<svg width="48" height="49" viewBox="0 0 48 49" fill="none" xmlns="http://www.w3.org/2000/svg">
<path d="M20.9417 9.7041L7.09619 14.8962V27.011C7.09619 33.9338 11.7114 39.7027 20.9417 44.3179C30.1721 39.7027 34.7872 33.9338 34.7872 27.011V14.8962L20.9417 9.7041Z" fill="#D5D3F8"/>
<path d="M24.576 10.2236L10.7305 15.4157V27.5305C10.7305 34.4533 15.3456 40.2222 24.576 44.8374C33.8063 40.2222 38.4215 34.4533 38.4215 27.5305V15.4157L24.576 10.2236Z" fill="#948EEE" stroke="#575AE5" stroke-width="0.346138" stroke-linecap="round" stroke-linejoin="round"/>
<path d="M29.9233 22.7422C30.0577 22.6533 30.2405 22.6679 30.3589 22.7861L31.0581 23.4863C31.1932 23.6214 31.194 23.8404 31.0591 23.9756L22.7476 32.2939C22.6826 32.3589 22.5943 32.3955 22.5024 32.3955C22.4107 32.3954 22.3231 32.3589 22.2583 32.2939L17.9272 27.9561C17.7924 27.8209 17.7924 27.6019 17.9272 27.4668L18.6274 26.7666L18.6812 26.7227C18.8154 26.6338 18.9983 26.6485 19.1167 26.7666L22.5024 30.1445L29.8696 22.7861L29.9233 22.7422Z" fill="#575AE5" stroke="#575AE5" stroke-width="0.692276" stroke-linejoin="round"/>
<path d="M27.5509 0.85849C28.1395 0.644261 28.688 0.560864 29.1377 0.612478C29.5879 0.664466 29.8733 0.851998 29.9625 1.0969L30.2955 2.01181C30.3846 2.25682 30.2884 2.5822 29.975 2.91307C29.6637 3.24168 29.19 3.53033 28.6014 3.74456C28.0128 3.95879 27.4615 4.04214 27.0146 3.99057C26.5645 3.93859 26.279 3.75102 26.1898 3.50615L25.8568 2.59123C25.7677 2.34622 25.8639 2.02088 26.1773 1.68997C26.4886 1.36135 26.9623 1.07273 27.5509 0.85849ZM29.2674 2.31949C29.0034 2.50377 28.7183 2.65644 28.4182 2.77303L28.3396 2.80267L28.6212 3.57627L28.7037 3.54312C29.0678 3.39698 29.361 3.22928 29.5875 3.05619L29.6377 3.01713L29.3602 2.25455L29.2674 2.31949ZM29.8692 1.69723C29.8057 1.80586 29.7301 1.90707 29.643 1.99782L29.642 1.99816C29.6058 2.03629 29.5662 2.07384 29.5253 2.11133L29.4834 2.15047L29.7619 2.91581L29.858 2.81432C29.9869 2.6792 30.078 2.54456 30.1287 2.4186C30.179 2.29341 30.1917 2.16938 30.1533 2.06359L29.9622 1.53868L29.8692 1.69723ZM27.6027 1.00073C26.9965 1.22139 26.5665 1.50428 26.302 1.77863C26.17 1.91564 26.0774 2.05304 26.0254 2.18069C25.9739 2.30738 25.9602 2.43257 25.9991 2.53946C26.038 2.64635 26.129 2.73344 26.2499 2.79736C26.3717 2.86174 26.531 2.90748 26.7202 2.92755C27.0992 2.96771 27.6104 2.90805 28.2166 2.6874C28.8229 2.46674 29.2528 2.18385 29.5173 1.9095C29.6494 1.77248 29.7419 1.63511 29.7939 1.50744C29.8455 1.38073 29.8592 1.25557 29.8202 1.14867C29.7813 1.04177 29.6904 0.954694 29.5695 0.890768C29.4476 0.826376 29.2884 0.780649 29.0991 0.760583C28.7201 0.720426 28.209 0.780065 27.6027 1.00073ZM28.1974 2.85444L28.1172 2.88258C27.8124 2.98619 27.4959 3.05249 27.1751 3.08102L27.0623 3.09089L27.3399 3.85348L27.4044 3.85079C27.6891 3.83773 28.0209 3.77803 28.3935 3.65601L28.479 3.62804L28.1974 2.85444ZM26.9011 3.09036L26.8442 3.08821C26.7887 3.08558 26.7337 3.08156 26.6816 3.07565L26.6807 3.07599C26.5556 3.0625 26.4327 3.03355 26.3142 2.99116L26.141 2.92947L26.3321 3.45438C26.3706 3.56015 26.4601 3.64696 26.5791 3.71053C26.6989 3.77447 26.8552 3.81903 27.0408 3.83971L27.1796 3.85569L26.9011 3.09036Z" stroke="#948EEE" stroke-width="0.173069"/>
<path d="M2.78536 32.1275C3.40221 32.2363 3.91887 32.4383 4.28253 32.7078C4.64642 32.9779 4.79986 33.2831 4.75461 33.5397L4.58555 34.4986C4.54022 34.7553 4.29424 34.989 3.8574 35.1189C3.42348 35.2478 2.86887 35.2609 2.25204 35.1521C1.63517 35.0433 1.11609 34.8399 0.754867 34.5718C0.391011 34.3017 0.237578 33.9965 0.282781 33.7399L0.451851 32.781C0.497139 32.5243 0.743112 32.2906 1.18 32.1608C1.61392 32.0318 2.16849 32.0187 2.78536 32.1275ZM3.54138 34.251C3.22062 34.2786 2.89736 34.2683 2.57917 34.2192L2.49629 34.2055L2.35334 35.0163L2.44136 35.0288C2.82976 35.0843 3.16754 35.0857 3.45025 35.0491L3.51327 35.0403L3.65419 34.2411L3.54138 34.251ZM4.37368 34.013C4.26435 34.0753 4.1483 34.1252 4.02743 34.1602L4.02647 34.16C3.97602 34.1749 3.92295 34.1876 3.86875 34.1996L3.81292 34.2126L3.67149 35.0147L3.80544 34.9748C3.98461 34.9222 4.13084 34.8512 4.23767 34.7674C4.34382 34.6842 4.4169 34.5831 4.43648 34.4723L4.53348 33.9222L4.37368 34.013ZM2.75908 32.2766C2.12372 32.1645 1.60993 32.1946 1.24372 32.2999C1.06084 32.3525 0.911953 32.4252 0.803117 32.5098C0.695143 32.5937 0.620678 32.6953 0.600918 32.8073C0.581166 32.9193 0.616417 33.0403 0.689161 33.1561C0.762507 33.2728 0.877567 33.392 1.03141 33.504C1.3395 33.7282 1.81204 33.9322 2.44739 34.0442C3.08277 34.1562 3.59652 34.1262 3.96275 34.0209C4.14565 33.9682 4.2945 33.8956 4.40335 33.811C4.51134 33.727 4.58579 33.6255 4.60555 33.5135C4.6253 33.4014 4.59008 33.2805 4.5173 33.1647C4.44395 33.048 4.32894 32.9288 4.17506 32.8168C3.86695 32.5925 3.39445 32.3886 2.75908 32.2766ZM2.34722 34.1793L2.26372 34.1635C1.9479 34.1008 1.64066 34 1.34865 33.8644L1.24602 33.8165L1.1051 34.6157L1.1623 34.6456C1.41535 34.7766 1.73257 34.8909 2.1163 34.9715L2.20427 34.99L2.34722 34.1793ZM1.10662 33.7354L1.05842 33.7051C1.01171 33.6751 0.966109 33.6441 0.923936 33.613L0.922975 33.6128C0.821374 33.5386 0.729362 33.452 0.647948 33.3561L0.528847 33.2161L0.431849 33.7662C0.412331 33.877 0.446447 33.997 0.517715 34.1115C0.589445 34.2268 0.702585 34.3435 0.852944 34.4542L0.965192 34.5375L1.10662 33.7354Z" stroke="#948EEE" stroke-width="0.173069"/>
<path d="M45.1677 28.8814C45.7826 28.7619 46.3373 28.7653 46.7734 28.8866C47.2099 29.0084 47.4625 29.2383 47.5123 29.4941L47.6981 30.4499C47.7478 30.7058 47.6019 31.0121 47.2406 31.2899C46.8817 31.5657 46.3686 31.7767 45.7538 31.8963C45.1389 32.0158 44.5814 32.0119 44.1481 31.891C43.7116 31.7692 43.459 31.5393 43.4092 31.2835L43.2234 30.3278C43.1737 30.0718 43.3196 29.7656 43.6809 29.4878C44.0398 29.2119 44.5529 29.0009 45.1677 28.8814ZM46.6345 30.5929C46.345 30.7336 46.0395 30.8398 45.7248 30.908L45.6426 30.925L45.7996 31.7331L45.8863 31.7133C46.2688 31.6259 46.5846 31.5061 46.8354 31.3706L46.8911 31.3399L46.7363 30.5433L46.6345 30.5929ZM47.3262 30.0725C47.2465 30.1698 47.156 30.258 47.0557 30.334L47.0548 30.3341C47.013 30.3661 46.9681 30.397 46.9217 30.4277L46.8743 30.4598L47.0297 31.2593L47.1405 31.1741C47.2889 31.0607 47.3999 30.942 47.4696 30.8255C47.5389 30.7098 47.5709 30.5893 47.5495 30.4787L47.4429 29.9304L47.3262 30.0725ZM45.1966 29.03C44.5633 29.1531 44.0944 29.3652 43.7903 29.5948C43.6384 29.7095 43.5254 29.8307 43.4541 29.9487C43.3834 30.0657 43.3503 30.1872 43.372 30.2989C43.3937 30.4106 43.4699 30.5108 43.5794 30.5929C43.6897 30.6755 43.8398 30.7456 44.0236 30.795C44.3916 30.894 44.9058 30.915 45.5391 30.7919C46.1724 30.6688 46.6413 30.4567 46.9454 30.2271C47.0973 30.1124 47.2102 29.9912 47.2816 29.8732C47.3523 29.7561 47.3854 29.6347 47.3637 29.523C47.342 29.4113 47.2658 29.3111 47.1563 29.229C47.046 29.1464 46.8959 29.0763 46.7121 29.0269C46.3441 28.9279 45.8299 28.9069 45.1966 29.03ZM45.494 30.9539L45.4104 30.9691C45.0931 31.0238 44.7701 31.0398 44.4489 31.0178L44.3359 31.0099L44.4908 31.8065L44.5549 31.8139C44.8381 31.8456 45.1752 31.8385 45.5623 31.7763L45.6511 31.762L45.494 30.9539ZM44.1767 30.9841L44.1208 30.9731C44.0665 30.9618 44.0128 30.9492 43.9623 30.9353L43.9613 30.9355C43.8399 30.9026 43.7229 30.8547 43.6126 30.7943L43.4512 30.7063L43.5578 31.2546C43.5793 31.3651 43.6541 31.4649 43.7617 31.5463C43.87 31.6282 44.0174 31.6966 44.1975 31.7461L44.3321 31.7836L44.1767 30.9841Z" stroke="#948EEE" stroke-width="0.173069"/>
<path d="M45.1782 33.0693C41.958 41.9524 33.4457 48.2988 23.4507 48.2988C14.7395 48.2988 7.15593 43.4769 3.21924 36.3574H3.4165C7.33675 43.3779 14.8387 48.1259 23.4507 48.126C33.3488 48.126 41.7823 41.8551 44.9946 33.0693H45.1782ZM23.4507 2.08984C24.1211 2.08984 24.785 2.11885 25.4409 2.1748V2.34863C24.7851 2.29225 24.1212 2.2627 23.4507 2.2627C10.7861 2.26281 0.519157 12.5297 0.519043 25.1943C0.519043 27.3228 0.810393 29.3832 1.35303 31.3389H1.17432C0.635814 29.3822 0.346191 27.3221 0.346191 25.1943C0.346306 12.4341 10.6905 2.08996 23.4507 2.08984ZM30.1138 3.06543C39.6257 5.92554 46.5551 14.7506 46.5552 25.1943C46.5552 26.1017 46.5017 26.9969 46.3999 27.877H46.2261C46.3286 26.997 46.3823 26.1018 46.3823 25.1943C46.3822 14.8471 39.5288 6.10061 30.1138 3.24609V3.06543Z" fill="#948EEE"/>
</svg>
