<svg width="96" height="100" viewBox="0 0 96 100" fill="none" xmlns="http://www.w3.org/2000/svg">
<path fill-rule="evenodd" clip-rule="evenodd" d="M64.739 0H71.6162V6.81667H64.739V0ZM0 51.4101H10.1983V59.8642H0V51.4101ZM96 91.546H85.8017V100H96V91.546ZM13.5483 25.7128C13.5912 25.6485 13.6685 25.6161 13.7445 25.6308L69.0014 36.279C69.0784 36.2938 69.1387 36.354 69.1536 36.4309C69.1686 36.5079 69.1353 36.5863 69.0695 36.6289L61.9292 41.2548L70.0263 42.8151L57.3013 51.059L71.114 60.2156C71.157 60.2441 71.1867 60.2887 71.1965 60.3394C71.2062 60.39 71.1952 60.4425 71.1659 60.485L68.4929 64.3525L72.069 66.7232L68.7441 71.5341L49.4169 58.7942L45.5464 78.619L14.7694 32.1669L18.1097 32.8106L13.548 25.9255C13.5052 25.861 13.5054 25.7772 13.5483 25.7128ZM14.121 26.0947L44.3864 71.7747L48.1671 52.4099C48.1794 52.347 48.2222 52.2944 48.2813 52.2696C48.3404 52.2448 48.4079 52.251 48.4614 52.2863L67.6317 64.9228L70.7384 60.4276L51.6522 47.7752C51.5982 47.7394 51.5659 47.6788 51.5662 47.6141C51.5666 47.5493 51.5995 47.489 51.6539 47.4538L68.4599 36.566L14.121 26.0947Z" fill="#97A0B2"/>
</svg>
