<svg width="167" height="123" viewBox="0 0 167 123" fill="none" xmlns="http://www.w3.org/2000/svg">
<path d="M83.6289 38.5V43.6143H96.4141V52.8428H68.7861C67.9753 52.8428 67.1973 53.165 66.624 53.7383C66.0507 54.3116 65.7285 55.0896 65.7285 55.9004C65.7286 56.711 66.0508 57.4883 66.624 58.0615C67.1973 58.6348 67.9753 58.957 68.7861 58.957H89.2432C92.5013 58.9571 95.6258 60.2518 97.9297 62.5557C100.234 64.8597 101.528 67.9848 101.528 71.2432C101.528 74.5014 100.234 77.6258 97.9297 79.9297C95.6258 82.2336 92.5014 83.5282 89.2432 83.5283H83.6289V88.6426H74.4004V83.5283H61.6143V74.2998H89.2432C90.0538 74.2997 90.8311 73.9775 91.4043 73.4043C91.9775 72.8311 92.2997 72.0538 92.2998 71.2432C92.2998 70.4324 91.9776 69.6544 91.4043 69.0811C90.8311 68.5079 90.0538 68.1857 89.2432 68.1855H68.7861C65.5278 68.1855 62.4026 66.8909 60.0986 64.5869C57.7947 62.283 56.5001 59.1586 56.5 55.9004C56.5 52.642 57.7946 49.5169 60.0986 47.2129C62.4026 44.9089 65.5278 43.6143 68.7861 43.6143H74.4004V38.5H83.6289Z" stroke="#948EEE"/>
<path d="M122.27 30.7073C114.81 21.7639 104.578 15.5662 93.1966 13.0965C81.815 10.6269 69.9347 12.0265 59.4386 17.0735C48.9425 22.1206 40.4311 30.5264 35.2534 40.9586C30.0757 51.3909 28.5279 63.2528 30.8552 74.6644M133.031 52.1941C135.778 63.7832 134.487 75.9626 129.373 86.7185C124.258 97.4745 115.625 106.163 104.903 111.347C94.1801 116.531 82.0093 117.9 70.4028 115.228C58.7962 112.557 48.4491 106.004 41.0721 96.6534" stroke="#948EEE" stroke-width="1.3948" stroke-linecap="round"/>
<path d="M124.837 18.9004V32.8484H110.889M53.3535 95.6144H39.4055V109.562" stroke="#948EEE" stroke-width="1.3948" stroke-linecap="round" stroke-linejoin="round"/>
<path d="M64.2053 77.6028C64.2053 76.4983 65.1008 75.6028 66.2053 75.6028H92.3338C93.012 75.6028 93.6624 75.3334 94.142 74.8539C94.6215 74.3743 94.8909 73.7239 94.8909 73.0457C94.8909 72.3675 94.6215 71.7171 94.142 71.2375C93.6624 70.758 93.012 70.4886 92.3338 70.4886H71.8767C68.4858 70.4886 65.2337 69.1415 62.8359 66.7437C60.4381 64.346 59.0911 61.0939 59.0911 57.7029C59.0911 54.3119 60.4381 51.0599 62.8359 48.6621C65.2337 46.2643 68.4858 44.9172 71.8767 44.9172H74.991C76.0956 44.9172 76.991 44.0218 76.991 42.9172V41.803C76.991 40.6984 77.8864 39.803 78.991 39.803H85.2195C86.3241 39.803 87.2195 40.6984 87.2195 41.803V42.9172C87.2195 44.0218 88.115 44.9172 89.2195 44.9172H98.0052C99.1098 44.9172 100.005 45.8127 100.005 46.9172V53.1458C100.005 54.2503 99.1098 55.1458 98.0052 55.1458H71.8767C71.1985 55.1458 70.5481 55.4152 70.0686 55.8947C69.589 56.3743 69.3196 57.0247 69.3196 57.7029C69.3196 58.3811 69.589 59.0315 70.0686 59.5111C70.5481 59.9906 71.1985 60.26 71.8767 60.26H92.3338C95.7248 60.26 98.9768 61.6071 101.375 64.0049C103.772 66.4027 105.119 69.6547 105.119 73.0457C105.119 76.4367 103.772 79.6888 101.375 82.0865C98.9768 84.4843 95.7248 85.8314 92.3338 85.8314H89.2195C88.115 85.8314 87.2195 86.7268 87.2195 87.8314V88.9456C87.2195 90.0502 86.3241 90.9456 85.2195 90.9456H78.991C77.8864 90.9456 76.991 90.0502 76.991 88.9456V87.8314C76.991 86.7268 76.0956 85.8314 74.991 85.8314H66.2053C65.1008 85.8314 64.2053 84.9359 64.2053 83.8314V77.6028Z" fill="#948EEE"/>
</svg>
