<svg width="16" height="16" viewBox="0 0 16 16" fill="none" xmlns="http://www.w3.org/2000/svg">
<path d="M8 16C12.4183 16 16 12.4183 16 8C16 3.58172 12.4183 0 8 0C3.58172 0 0 3.58172 0 8C0 12.4183 3.58172 16 8 16Z" fill="#F7931A"/>
<path d="M11.5945 7.01C11.7515 5.962 10.953 5.3985 9.86199 5.0225L10.216 3.6025L9.35199 3.3875L9.00699 4.77C8.77999 4.713 8.54699 4.66 8.31449 4.607L8.66199 3.2155L7.79799 3L7.44399 4.4195C7.25566 4.37717 7.07166 4.33383 6.89199 4.2895L6.89299 4.285L5.70099 3.9875L5.47099 4.9105C5.47099 4.9105 6.11249 5.0575 6.09899 5.0665C6.44899 5.154 6.51199 5.3855 6.50149 5.5695L6.09849 7.187C6.12282 7.19267 6.15282 7.20217 6.18849 7.2155L6.09699 7.193L5.53199 9.459C5.48899 9.565 5.38049 9.7245 5.13549 9.664C5.14449 9.6765 4.50749 9.5075 4.50749 9.5075L4.07849 10.4965L5.20349 10.777C5.41249 10.8295 5.61749 10.8845 5.81899 10.936L5.46149 12.372L6.32499 12.587L6.67899 11.167C6.91466 11.2303 7.14432 11.2898 7.36799 11.3455L7.01499 12.7595L7.87899 12.9745L8.23649 11.5415C9.71049 11.8205 10.8185 11.708 11.285 10.375C11.661 9.302 11.2665 8.6825 10.491 8.279C11.056 8.149 11.481 7.7775 11.5945 7.01ZM9.61949 9.779C9.35299 10.8525 7.54549 10.272 6.95949 10.1265L7.43449 8.224C8.02049 8.3705 9.89899 8.66 9.61949 9.779ZM9.88699 6.9945C9.64349 7.971 8.13949 7.4745 7.65199 7.353L8.08199 5.628C8.56949 5.7495 10.141 5.976 9.88699 6.9945Z" fill="white"/>
</svg>
