<svg width="68" height="68" viewBox="0 0 68 68" fill="none" xmlns="http://www.w3.org/2000/svg">
<path d="M34.0003 0.666992C52.4103 0.666992 67.3337 15.5903 67.3337 34.0003C67.3337 52.4103 52.4103 67.3337 34.0003 67.3337C15.5903 67.3337 0.666992 52.4103 0.666992 34.0003C0.666992 15.5903 15.5903 0.666992 34.0003 0.666992ZM44.7337 23.9003L29.8337 38.8003L23.267 32.2337C22.7931 31.7921 22.1663 31.5516 21.5186 31.5631C20.8709 31.5745 20.253 31.8369 19.7949 32.2949C19.3369 32.753 19.0745 33.3709 19.0631 34.0186C19.0516 34.6663 19.2921 35.2931 19.7337 35.767L28.067 44.1003C28.5357 44.5685 29.1712 44.8315 29.8337 44.8315C30.4962 44.8315 31.1316 44.5685 31.6003 44.1003L48.267 27.4337C48.5126 27.2048 48.7096 26.9288 48.8463 26.6221C48.9829 26.3155 49.0564 25.9844 49.0623 25.6487C49.0682 25.3131 49.0065 24.9796 48.8807 24.6683C48.755 24.357 48.5678 24.0743 48.3305 23.8369C48.0931 23.5995 47.8103 23.4123 47.499 23.2866C47.1877 23.1608 46.8543 23.0991 46.5186 23.105C46.1829 23.1109 45.8519 23.1844 45.5452 23.3211C45.2385 23.4577 44.9625 23.6547 44.7337 23.9003Z" fill="#219653"/>
</svg>
