<svg width="32" height="32" viewBox="0 0 32 32" fill="none" xmlns="http://www.w3.org/2000/svg">
<path d="M8 8.17V21C7.9998 22.2694 8.48247 23.4914 9.35008 24.4181C10.2177 25.3448 11.4053 25.9067 12.672 25.99L13 26H21.828C21.6212 26.5848 21.2383 27.0912 20.7318 27.4494C20.2253 27.8075 19.6203 27.9999 19 28H12C10.4087 28 8.88258 27.3679 7.75736 26.2426C6.63214 25.1174 6 23.5913 6 22V11C5.99968 10.3793 6.19186 9.77387 6.55006 9.26702C6.90826 8.76016 7.41484 8.37688 8 8.17ZM23 4C23.7956 4 24.5587 4.31607 25.1213 4.87868C25.6839 5.44129 26 6.20435 26 7V21C26 21.7956 25.6839 22.5587 25.1213 23.1213C24.5587 23.6839 23.7956 24 23 24H13C12.2044 24 11.4413 23.6839 10.8787 23.1213C10.3161 22.5587 10 21.7956 10 21V7C10 6.20435 10.3161 5.44129 10.8787 4.87868C11.4413 4.31607 12.2044 4 13 4H23ZM23 6H13C12.7348 6 12.4804 6.10536 12.2929 6.29289C12.1054 6.48043 12 6.73478 12 7V21C12 21.2652 12.1054 21.5196 12.2929 21.7071C12.4804 21.8946 12.7348 22 13 22H23C23.2652 22 23.5196 21.8946 23.7071 21.7071C23.8946 21.5196 24 21.2652 24 21V7C24 6.73478 23.8946 6.48043 23.7071 6.29289C23.5196 6.10536 23.2652 6 23 6Z" fill="#948EEE"/>
</svg>
