<svg width="48" height="48" viewBox="0 0 48 48" fill="none" xmlns="http://www.w3.org/2000/svg">
<rect x="1" y="1" width="46" height="46" rx="7" stroke="#97A0B2" stroke-width="2"/>
<path d="M18.0847 13.3304C18.2328 13.1842 18.316 12.986 18.316 12.7793C18.316 12.5726 18.2328 12.3744 18.0847 12.2283C17.9367 12.0821 17.7358 12 17.5264 12C17.317 12 17.1162 12.0821 16.9681 12.2283L12.2313 16.9036C12.158 16.9759 12.0998 17.0618 12.0601 17.1564C12.0204 17.2509 12 17.3523 12 17.4546C12 17.557 12.0204 17.6583 12.0601 17.7529C12.0998 17.8474 12.158 17.9333 12.2313 18.0057L16.9681 22.681C17.1162 22.8271 17.317 22.9092 17.5264 22.9092C17.7358 22.9092 17.9367 22.8271 18.0847 22.681C18.2328 22.5348 18.316 22.3366 18.316 22.1299C18.316 21.9232 18.2328 21.725 18.0847 21.5789L14.6957 18.2338H26.2106C30.7453 18.2338 34.4211 21.8619 34.4211 26.3377C34.4211 30.8135 30.7453 34.4416 26.2106 34.4416C21.6759 34.4416 18.0001 30.8135 18.0001 26.3377C18.0001 26.131 17.9169 25.9328 17.7689 25.7867C17.6208 25.6406 17.42 25.5585 17.2106 25.5585C17.0013 25.5585 16.8005 25.6406 16.6524 25.7867C16.5043 25.9328 16.4212 26.131 16.4212 26.3377C16.4212 31.6738 20.8043 36 26.2106 36C31.6169 36 36 31.6738 36 26.3377C36 21.0016 31.6169 16.6754 26.2106 16.6754H14.6957L18.0847 13.3304Z" fill="#97A0B2"/>
</svg>
