<svg width="49" height="48" viewBox="0 0 49 48" fill="none" xmlns="http://www.w3.org/2000/svg">
<rect x="2" y="46.5" width="45" height="45" rx="22.5" transform="rotate(-90 2 46.5)" fill="#948EEE"/>
<rect x="2" y="46.5" width="45" height="45" rx="22.5" transform="rotate(-90 2 46.5)" stroke="#FAFAFA" stroke-width="3"/>
<path d="M12.7518 20.2451C12.672 20.1638 12.6087 20.0672 12.5654 19.961C12.5222 19.8547 12.5 19.7407 12.5 19.6257C12.5 19.5106 12.5222 19.3966 12.5654 19.2903C12.6087 19.1841 12.672 19.0875 12.7518 19.0062L17.8941 13.757C17.9737 13.6756 18.0683 13.6109 18.1724 13.5668C18.2765 13.5227 18.3881 13.5 18.5009 13.5C18.6136 13.5 18.7252 13.5227 18.8294 13.5668C18.9335 13.6109 19.0281 13.6756 19.1077 13.757L24.25 19.0062C24.3297 19.0876 24.3929 19.1842 24.436 19.2904C24.4791 19.3967 24.5013 19.5106 24.5013 19.6257C24.5013 19.7407 24.4791 19.8546 24.436 19.9609C24.3929 20.0672 24.3297 20.1637 24.25 20.2451C24.1703 20.3264 24.0757 20.3909 23.9716 20.4349C23.8675 20.479 23.7559 20.5016 23.6432 20.5016C23.5305 20.5016 23.4189 20.479 23.3148 20.4349C23.2107 20.3909 23.1161 20.3264 23.0364 20.2451L19.3579 16.4884V33.6236C19.3579 33.8556 19.2676 34.0781 19.1069 34.2422C18.9462 34.4063 18.7282 34.4984 18.5009 34.4984C18.2736 34.4984 18.0556 34.4063 17.8949 34.2422C17.7341 34.0781 17.6438 33.8556 17.6438 33.6236V16.4884L13.9654 20.2451C13.8858 20.3265 13.7912 20.3912 13.6871 20.4353C13.5829 20.4794 13.4713 20.5021 13.3586 20.5021C13.2458 20.5021 13.1342 20.4794 13.0301 20.4353C12.926 20.3912 12.8314 20.3265 12.7518 20.2451ZM24.7505 27.7549C24.8301 27.6735 24.9247 27.6088 25.0288 27.5647C25.1329 27.5206 25.2445 27.4979 25.3573 27.4979C25.47 27.4979 25.5816 27.5206 25.6858 27.5647C25.7899 27.6088 25.8845 27.6735 25.9641 27.7549L29.6425 31.5116V14.3764C29.6425 14.1444 29.7328 13.9219 29.8935 13.7578C30.0543 13.5937 30.2723 13.5016 30.4996 13.5016C30.7269 13.5016 30.9449 13.5937 31.1056 13.7578C31.2663 13.9219 31.3566 14.1444 31.3566 14.3764V31.5116L35.0351 27.7549C35.196 27.5907 35.4143 27.4984 35.6419 27.4984C35.8695 27.4984 36.0877 27.5907 36.2487 27.7549C36.4096 27.9192 36.5 28.142 36.5 28.3743C36.5 28.6067 36.4096 28.8295 36.2487 28.9938L31.1064 34.243C31.0268 34.3244 30.9322 34.3891 30.8281 34.4332C30.7239 34.4773 30.6123 34.5 30.4996 34.5C30.3868 34.5 30.2752 34.4773 30.1711 34.4332C30.067 34.3891 29.9724 34.3244 29.8928 34.243L24.7505 28.9938C24.6707 28.9125 24.6073 28.8159 24.5641 28.7097C24.5209 28.6034 24.4987 28.4894 24.4987 28.3743C24.4987 28.2593 24.5209 28.1453 24.5641 28.039C24.6073 27.9328 24.6707 27.8362 24.7505 27.7549Z" fill="white"/>
</svg>
