<svg width="35" height="37" viewBox="0 0 35 37" fill="none" xmlns="http://www.w3.org/2000/svg">
<rect y="-0.000976562" width="34.1943" height="37.001" rx="17.0971" fill="#948EEE"/>
<path d="M16.1353 8.8991L8.99678 15.9881C8.71628 16.2657 8.4936 16.5961 8.34162 16.9603C8.18965 17.3245 8.1114 17.7152 8.1114 18.1098C8.1114 18.5045 8.18965 18.8952 8.34162 19.2594C8.4936 19.6236 8.71628 19.954 8.99678 20.2316L13.9618 25.1636C15.1408 26.3336 17.0518 26.3336 18.2323 25.1636L25.2673 18.1766C25.8265 17.62 26.1439 16.8655 26.1508 16.0766L26.1868 11.0186C26.188 10.6207 26.1103 10.2266 25.9582 9.85889C25.8062 9.49122 25.5827 9.15734 25.3008 8.87656C25.0189 8.59578 24.6842 8.37366 24.3159 8.22305C23.9476 8.07244 23.5531 7.99632 23.1553 7.9991L18.2593 8.0201C17.4635 8.02234 16.7006 8.33753 16.1353 8.8976M22.2223 13.4846C22.0049 13.6998 21.7114 13.8205 21.4055 13.8205C21.0997 13.8205 20.8062 13.6998 20.5888 13.4846C20.4813 13.3785 20.3959 13.2522 20.3377 13.1129C20.2794 12.9736 20.2494 12.8241 20.2494 12.6731C20.2494 12.5221 20.2794 12.3726 20.3377 12.2333C20.3959 12.094 20.4813 11.9676 20.5888 11.8616C20.8062 11.646 21.1001 11.525 21.4063 11.525C21.7125 11.525 22.0063 11.646 22.2238 11.8616C22.6738 12.3116 22.6723 13.0376 22.2223 13.4846ZM8.18978 21.1241C7.98828 21.6634 7.94619 22.2492 8.06853 22.8118C8.19088 23.3743 8.4725 23.8897 8.87978 24.2966L11.8258 27.2426C12.3829 27.7998 13.0444 28.2418 13.7724 28.5433C14.5003 28.8449 15.2806 29.0001 16.0685 29.0001C16.8565 29.0001 17.6367 28.8449 18.3647 28.5433C19.0927 28.2418 19.7541 27.7998 20.3113 27.2426L25.5343 22.0196C25.9564 21.598 26.1938 21.0261 26.1943 20.4296V19.2596L20.3113 25.1426C20.2093 25.2466 20.1038 25.3451 19.9948 25.4381L19.2508 26.1821C18.8329 26.6 18.3368 26.9316 17.7908 27.1578C17.2448 27.384 16.6595 27.5004 16.0685 27.5004C15.4775 27.5004 14.8923 27.384 14.3463 27.1578C13.8003 26.9316 13.3042 26.6 12.8863 26.1821L12.1393 25.4336C12.0319 25.3403 11.9278 25.2433 11.8273 25.1426L8.87978 22.1966C8.57558 21.8927 8.34026 21.5269 8.18978 21.1241Z" fill="white"/>
</svg>
