<svg width="45" height="49" viewBox="0 0 45 49" fill="none" xmlns="http://www.w3.org/2000/svg">
<path d="M0.298754 30.5004L5.43842 33.1243L6.59895 9.67394L1.44518 7.33515L0.298754 30.5004Z" fill="#948EEE"/>
<path fill-rule="evenodd" clip-rule="evenodd" d="M0.534083 30.5951L1.35104 7.15364L6.17347 9.6302L5.34615 33.3691L0.534083 30.5951ZM0.718325 30.5251L5.17394 33.0937L5.98905 9.70524L1.52383 7.41214L0.718325 30.5251Z" fill="#948EEE"/>
<path fill-rule="evenodd" clip-rule="evenodd" d="M5.33398 33.1982L6.49474 9.74351L13.4785 9.91491L12.3323 33.076L5.33398 33.1982ZM5.5439 33.0519L12.1365 32.9368L13.269 10.0525L6.69011 9.89103L5.5439 33.0519Z" fill="#948EEE"/>
<path fill-rule="evenodd" clip-rule="evenodd" d="M1.30975 7.12818L8.97659 7.39539L13.5113 10.1256L6.59721 9.88467L1.30975 7.12818ZM6.6617 9.73561L12.9055 9.95322L8.90427 7.54418L1.9963 7.30342L6.6617 9.73561Z" fill="#948EEE"/>
<path fill-rule="evenodd" clip-rule="evenodd" d="M7.67699 2.9924L7.45829 9.2678L7.25586 9.26074L7.47456 2.98534L7.67699 2.9924Z" fill="#948EEE" stroke="#575AE5" stroke-width="0.461537"/>
<path fill-rule="evenodd" clip-rule="evenodd" d="M6.25261 33.3762L6.08329 38.2346L5.88086 38.2275L6.05018 33.3692L6.25261 33.3762Z" fill="#948EEE" stroke="#575AE5" stroke-width="0.461537"/>
<path d="M43.8545 40.5013L38.5873 42.8585L38.629 19.3795L43.8957 17.3077L43.8545 40.5013Z" fill="#948EEE"/>
<path fill-rule="evenodd" clip-rule="evenodd" d="M43.6154 40.5831L43.9998 17.1306L39.0569 19.357L38.6676 43.1071L43.6154 40.5831ZM43.435 40.5038L38.8537 42.8409L39.2372 19.4414L43.814 17.3799L43.435 40.5038Z" fill="#948EEE"/>
<path fill-rule="evenodd" clip-rule="evenodd" d="M38.6885 42.9365L38.7302 19.4531L31.7468 19.2667L31.7056 42.4561L38.6885 42.9365ZM38.4863 42.7796L31.9083 42.3271L31.949 19.4148L38.5275 19.5904L38.4863 42.7796Z" fill="#948EEE"/>
<path fill-rule="evenodd" clip-rule="evenodd" d="M44.0426 17.1074L36.3721 16.9817L31.7036 19.4762L38.621 19.5896L44.0426 17.1074ZM38.5642 19.4374L32.3175 19.335L36.4368 17.134L43.348 17.2473L38.5642 19.4374Z" fill="#948EEE"/>
<path fill-rule="evenodd" clip-rule="evenodd" d="M37.895 12.6509L37.7921 18.9293L37.9946 18.9326L38.0975 12.6543L37.895 12.6509Z" fill="#948EEE" stroke="#575AE5" stroke-width="0.461537"/>
<path fill-rule="evenodd" clip-rule="evenodd" d="M37.7629 43.0686L37.6832 47.9293L37.8857 47.9326L37.9654 43.0719L37.7629 43.0686Z" fill="#948EEE" stroke="#575AE5" stroke-width="0.461537"/>
<path d="M15.8237 37.4838L20.9633 41.2098L22.1239 7.90971L16.9701 4.58858L15.8237 37.4838Z" fill="#948EEE"/>
<path fill-rule="evenodd" clip-rule="evenodd" d="M15.72 37.5341L16.8745 4.40679L22.2265 7.85566L21.0573 41.4034L15.72 37.5341ZM15.9262 37.4334L20.8682 41.0161L22.0201 7.96359L17.0645 4.7702L15.9262 37.4334Z" fill="#948EEE"/>
<path fill-rule="evenodd" clip-rule="evenodd" d="M20.8579 41.3135L22.0187 8.00717L29.0024 8.25057L27.8562 41.1399L20.8579 41.3135ZM21.0678 41.1057L27.6604 40.9422L28.7929 8.44595L22.214 8.21666L21.0678 41.1057Z" fill="#948EEE"/>
<path fill-rule="evenodd" clip-rule="evenodd" d="M16.8333 4.38092L24.5002 4.64813L29.0044 8.25064L22.0904 8.00967L16.8333 4.38092ZM22.1567 7.8093L28.4004 8.02691L24.426 4.84822L17.5181 4.60746L22.1567 7.8093Z" fill="#948EEE"/>
<path fill-rule="evenodd" clip-rule="evenodd" d="M23.2004 0.24533L22.9817 6.52073L22.7793 6.51367L22.998 0.238275L23.2004 0.24533Z" fill="#948EEE" stroke="#575AE5" stroke-width="0.461537"/>
<path fill-rule="evenodd" clip-rule="evenodd" d="M21.7765 41.136L21.6072 45.9944L21.4048 45.9873L21.5741 41.1289L21.7765 41.136Z" fill="#948EEE" stroke="#575AE5" stroke-width="0.461537"/>
</svg>
