<svg width="104" height="114" viewBox="0 0 104 114" fill="none" xmlns="http://www.w3.org/2000/svg">
<path d="M0.700318 71.68L12.7543 77.8337L15.4761 22.8369L3.38901 17.3519L0.700318 71.68Z" fill="#948EEE"/>
<path fill-rule="evenodd" clip-rule="evenodd" d="M1.25049 71.9015L3.16648 16.9257L14.4765 22.7338L12.5362 78.4073L1.25049 71.9015ZM1.68259 71.7375L12.1323 77.7614L14.0439 22.9098L3.57174 17.5319L1.68259 71.7375Z" fill="#948EEE"/>
<path fill-rule="evenodd" clip-rule="evenodd" d="M12.5082 78.0054L15.2305 22.9983L31.6094 23.4003L28.9212 77.7187L12.5082 78.0054ZM13.0005 77.6621L28.462 77.3921L31.1181 23.723L15.6887 23.3443L13.0005 77.6621Z" fill="#948EEE"/>
<path fill-rule="evenodd" clip-rule="evenodd" d="M3.06924 16.8655L21.0502 17.4922L31.6853 23.8953L15.4698 23.3301L3.06924 16.8655ZM15.6211 22.9805L30.2645 23.4909L20.8805 17.8411L4.67939 17.2765L15.6211 22.9805Z" fill="#948EEE"/>
<path fill-rule="evenodd" clip-rule="evenodd" d="M18.0039 7.16616L17.491 21.8835L17.0162 21.8669L17.5292 7.14962L18.0039 7.16616Z" fill="#948EEE" stroke="#575AE5"/>
<path fill-rule="evenodd" clip-rule="evenodd" d="M14.6615 78.424L14.2644 89.8181L13.7897 89.8015L14.1868 78.4075L14.6615 78.424Z" fill="#948EEE" stroke="#575AE5"/>
<path d="M102.848 95.1321L90.4946 100.661L90.5924 45.5965L102.944 40.7376L102.848 95.1321Z" fill="#948EEE"/>
<path fill-rule="evenodd" clip-rule="evenodd" d="M102.287 95.3251L103.189 40.3233L91.5963 45.5447L90.6834 101.245L102.287 95.3251ZM101.864 95.1392L91.1198 100.62L92.0192 45.7426L102.753 40.908L101.864 95.1392Z" fill="#948EEE"/>
<path fill-rule="evenodd" clip-rule="evenodd" d="M90.7317 100.844L90.8295 45.7702L74.4515 45.333L74.3549 99.7178L90.7317 100.844ZM90.2576 100.476L74.8302 99.4151L74.9256 45.6804L90.3542 46.0923L90.2576 100.476Z" fill="#948EEE"/>
<path fill-rule="evenodd" clip-rule="evenodd" d="M103.289 40.2679L85.2994 39.9731L74.3504 45.8232L90.5735 46.0891L103.289 40.2679ZM90.4404 45.7322L75.7901 45.4921L85.451 40.3302L101.66 40.5959L90.4404 45.7322Z" fill="#948EEE"/>
<path fill-rule="evenodd" clip-rule="evenodd" d="M88.8704 29.817L88.629 44.5413L89.104 44.5491L89.3453 29.8248L88.8704 29.817Z" fill="#948EEE" stroke="#575AE5"/>
<path fill-rule="evenodd" clip-rule="evenodd" d="M88.5599 101.152L88.373 112.552L88.848 112.56L89.0349 101.16L88.5599 101.152Z" fill="#948EEE" stroke="#575AE5"/>
<path d="M37.1101 88.0554L49.1641 96.7937L51.8859 18.6969L39.7988 10.9081L37.1101 88.0554Z" fill="#948EEE"/>
<path fill-rule="evenodd" clip-rule="evenodd" d="M36.8681 88.1733L39.5757 10.4818L52.1277 18.5702L49.3857 97.2478L36.8681 88.1733ZM37.3516 87.9371L48.942 96.3394L51.6435 18.8234L40.0214 11.3341L37.3516 87.9371Z" fill="#948EEE"/>
<path fill-rule="evenodd" clip-rule="evenodd" d="M48.9178 97.0374L51.6401 18.926L68.019 19.4968L65.3308 96.6303L48.9178 97.0374ZM49.4102 96.55L64.8717 96.1665L67.5278 19.955L52.0983 19.4173L49.4102 96.55Z" fill="#948EEE"/>
<path fill-rule="evenodd" clip-rule="evenodd" d="M39.4788 10.4214L57.4597 11.0481L68.0235 19.4968L51.8081 18.9317L39.4788 10.4214ZM51.9635 18.4618L66.6069 18.9721L57.2859 11.5173L41.0848 10.9527L51.9635 18.4618Z" fill="#948EEE"/>
<path fill-rule="evenodd" clip-rule="evenodd" d="M54.4135 0.722315L53.9005 15.4396L53.4258 15.4231L53.9387 0.705769L54.4135 0.722315Z" fill="#948EEE" stroke="#575AE5"/>
<path fill-rule="evenodd" clip-rule="evenodd" d="M51.0712 96.6225L50.6741 108.017L50.1993 108L50.5964 96.6059L51.0712 96.6225Z" fill="#948EEE" stroke="#575AE5"/>
</svg>
