<svg width="48" height="48" viewBox="0 0 48 48" fill="none" xmlns="http://www.w3.org/2000/svg">
<rect x="1" y="1" width="46" height="46" rx="7" stroke="#97A0B2" stroke-width="2"/>
<path d="M25.5 25.5C25.5 25.8978 25.342 26.2794 25.0607 26.5607C24.7794 26.842 24.3978 27 24 27C23.6022 27 23.2206 26.842 22.9393 26.5607C22.658 26.2794 22.5 25.8978 22.5 25.5C22.5 25.1022 22.658 24.7206 22.9393 24.4393C23.2206 24.158 23.6022 24 24 24C24.3978 24 24.7794 24.158 25.0607 24.4393C25.342 24.7206 25.5 25.1022 25.5 25.5ZM19.5 18H18.75C17.7554 18 16.8016 18.3951 16.0983 19.0983C15.3951 19.8016 15 20.7554 15 21.75V29.25C15 30.2446 15.3951 31.1984 16.0983 31.9016C16.8016 32.6049 17.7554 33 18.75 33H29.25C30.2446 33 31.1984 32.6049 31.9016 31.9016C32.6049 31.1984 33 30.2446 33 29.25V21.75C33 20.7554 32.6049 19.8016 31.9016 19.0983C31.1984 18.3951 30.2446 18 29.25 18H28.5V17.25C28.5 16.0565 28.0259 14.9119 27.182 14.068C26.3381 13.2241 25.1935 12.75 24 12.75C22.8065 12.75 21.6619 13.2241 20.818 14.068C19.9741 14.9119 19.5 16.0565 19.5 17.25V18ZM21 17.25C21 16.4544 21.3161 15.6913 21.8787 15.1287C22.4413 14.5661 23.2044 14.25 24 14.25C24.7956 14.25 25.5587 14.5661 26.1213 15.1287C26.6839 15.6913 27 16.4544 27 17.25V18H21V17.25ZM29.25 19.5C29.8467 19.5 30.419 19.7371 30.841 20.159C31.2629 20.581 31.5 21.1533 31.5 21.75V29.25C31.5 29.8467 31.2629 30.419 30.841 30.841C30.419 31.2629 29.8467 31.5 29.25 31.5H18.75C18.1533 31.5 17.581 31.2629 17.159 30.841C16.7371 30.419 16.5 29.8467 16.5 29.25V21.75C16.5 21.1533 16.7371 20.581 17.159 20.159C17.581 19.7371 18.1533 19.5 18.75 19.5H29.25Z" fill="#97A0B2"/>
</svg>
