<svg width="18" height="16" viewBox="0 0 18 16" fill="none" xmlns="http://www.w3.org/2000/svg">
<path d="M4 0C2.93913 0 1.92172 0.421427 1.17157 1.17157C0.421427 1.92172 0 2.93913 0 4V12C0 13.0609 0.421427 14.0783 1.17157 14.8284C1.92172 15.5786 2.93913 16 4 16H11C11.2652 16 11.5196 15.8946 11.7071 15.7071C11.8946 15.5196 12 15.2652 12 15C12 14.7348 11.8946 14.4804 11.7071 14.2929C11.5196 14.1054 11.2652 14 11 14H4C3.46957 14 2.96086 13.7893 2.58579 13.4142C2.21071 13.0391 2 12.5304 2 12V4C2 3.46957 2.21071 2.96086 2.58579 2.58579C2.96086 2.21071 3.46957 2 4 2H11C11.2652 2 11.5196 1.89464 11.7071 1.70711C11.8946 1.51957 12 1.26522 12 1C12 0.734784 11.8946 0.48043 11.7071 0.292893C11.5196 0.105357 11.2652 0 11 0H4ZM13.708 3.292C13.615 3.19902 13.5046 3.12527 13.3832 3.07495C13.2617 3.02464 13.1315 2.99874 13 2.99874C12.8685 2.99874 12.7383 3.02464 12.6168 3.07495C12.4954 3.12527 12.385 3.19902 12.292 3.292C12.199 3.38498 12.1253 3.49535 12.075 3.61683C12.0246 3.73831 11.9987 3.86851 11.9987 4C11.9987 4.13149 12.0246 4.26169 12.075 4.38317C12.1253 4.50465 12.199 4.61502 12.292 4.708L14.586 7H6C5.73478 7 5.48043 7.10536 5.29289 7.29289C5.10536 7.48043 5 7.73478 5 8C5 8.26522 5.10536 8.51957 5.29289 8.70711C5.48043 8.89464 5.73478 9 6 9H14.586L12.292 11.292C12.199 11.385 12.1253 11.4954 12.075 11.6168C12.0246 11.7383 11.9987 11.8685 11.9987 12C11.9987 12.1315 12.0246 12.2617 12.075 12.3832C12.1253 12.5046 12.199 12.615 12.292 12.708C12.385 12.801 12.4954 12.8747 12.6168 12.925C12.7383 12.9754 12.8685 13.0013 13 13.0013C13.1315 13.0013 13.2617 12.9754 13.3832 12.925C13.5046 12.8747 13.615 12.801 13.708 12.708L17.708 8.708C17.8011 8.61511 17.875 8.50476 17.9254 8.38327C17.9758 8.26178 18.0018 8.13153 18.0018 8C18.0018 7.86847 17.9758 7.73822 17.9254 7.61673C17.875 7.49524 17.8011 7.38489 17.708 7.292L13.708 3.292Z" fill="#EB5757"/>
</svg>
