<svg width="16" height="16" viewBox="0 0 16 16" fill="none" xmlns="http://www.w3.org/2000/svg">
<g clip-path="url(#clip0_212_643)">
<g clip-path="url(#clip1_212_643)">
<path d="M1.77778 -2.22223C1.30628 -2.22223 0.854097 -1.87644 0.520699 -1.26094C0.187301 -0.645435 0 0.189368 0 1.05982L0 15.8291C0 16.6995 0.187301 17.5343 0.520699 18.1498C0.854097 18.7653 1.30628 19.1111 1.77778 19.1111H5.33333V-2.22223H1.77778Z" fill="#009A49"/>
<path d="M5.33333 -2.22223H10.6667V19.1111H5.33333V-2.22223Z" fill="#EEEEEE"/>
<path d="M14.2222 -2.22223H10.6667V19.1111H14.2222C14.6937 19.1111 15.1459 18.7653 15.4793 18.1498C15.8127 17.5343 16 16.6995 16 15.8291V1.05982C16 0.189368 15.8127 -0.645435 15.4793 -1.26094C15.1459 -1.87644 14.6937 -2.22223 14.2222 -2.22223Z" fill="#009A49"/>
</g>
</g>
<defs>
<clipPath id="clip0_212_643">
<rect width="16" height="16" fill="white"/>
</clipPath>
<clipPath id="clip1_212_643">
<rect width="16" height="16" rx="8" fill="white"/>
</clipPath>
</defs>
</svg>
