<svg width="24" height="24" viewBox="0 0 24 24" fill="none" xmlns="http://www.w3.org/2000/svg">
<path d="M16.3065 9.57681C16.4229 9.46158 16.4894 9.30525 16.4917 9.14147C16.494 8.9777 16.432 8.81955 16.3189 8.70108C16.2058 8.5826 16.0507 8.51326 15.887 8.50797C15.7233 8.50269 15.564 8.56188 15.4435 8.67281L10.385 13.5013L8.567 11.6828C8.44977 11.5656 8.29078 11.4997 8.125 11.4997C7.95922 11.4997 7.80023 11.5656 7.683 11.6828C7.56577 11.8 7.49992 11.959 7.49992 12.1248C7.49992 12.2906 7.56577 12.4496 7.683 12.5668L9.933 14.8168C10.173 15.0568 10.561 15.0618 10.8065 14.8268L16.3065 9.57681ZM12.4325 2.17381C12.3161 2.06227 12.1612 2 12 2C11.8388 2 11.6839 2.06227 11.5675 2.17381C10.188 3.49531 8.225 4.21231 6.549 4.59381C5.719 4.78181 4.9795 4.88381 4.448 4.93881C4.17297 4.96703 3.89719 4.98737 3.621 4.99981H3.61C3.44685 5.00373 3.29171 5.0713 3.17772 5.18809C3.06374 5.30488 2.99995 5.46162 3 5.62481V10.3748C3 12.7933 3.6215 15.2038 5.049 17.2623C6.4795 19.3253 8.694 20.9968 11.8135 21.9713C11.935 22.0093 12.065 22.0093 12.1865 21.9713C18.47 20.0078 21 15.2483 21 10.4998V5.62481C21 5.46162 20.9363 5.30488 20.8223 5.18809C20.7083 5.0713 20.5531 5.00373 20.39 4.99981H20.379L20.339 4.99831L20.175 4.98981C19.967 4.97729 19.7593 4.96029 19.552 4.93881C18.8455 4.86537 18.1439 4.75017 17.451 4.59381C15.7745 4.21231 13.8115 3.49531 12.4325 2.17381ZM4.25 10.3748V6.21231C4.34867 6.20431 4.45717 6.19431 4.5755 6.18231C5.33223 6.10414 6.08358 5.98058 6.8255 5.81231C8.4355 5.44681 10.431 4.76131 12 3.46131C13.5685 4.76131 15.565 5.44631 17.174 5.81231C18.0225 6.00447 18.8832 6.13811 19.75 6.21231V10.4998C19.75 14.7048 17.578 18.8993 12 20.7188C9.22 19.8118 7.305 18.3223 6.076 16.5498C4.816 14.7333 4.25 12.5813 4.25 10.3748Z" fill="#575AE5"/>
</svg>
