<svg width="65" height="48" viewBox="0 0 65 48" fill="none" xmlns="http://www.w3.org/2000/svg">
<path d="M23.7875 28.7998H34.7357C34.9996 28.7998 35.2528 28.6946 35.4394 28.5075C35.6261 28.3204 35.731 28.0665 35.731 27.8019C35.731 27.5372 35.6261 27.2834 35.4394 27.0962C35.2528 26.9091 34.9996 26.804 34.7357 26.804H26.7733C25.4535 26.804 24.1877 26.2783 23.2544 25.3426C22.3212 24.4069 21.7969 23.1377 21.7969 21.8144C21.7969 20.4911 22.3212 19.222 23.2544 18.2863C24.1877 17.3506 25.4535 16.8249 26.7733 16.8249H28.7639V14.8291H32.7451V16.8249H37.7215V20.8165H26.7733C26.5094 20.8165 26.2562 20.9217 26.0696 21.1088C25.8829 21.296 25.778 21.5498 25.778 21.8144C25.778 22.0791 25.8829 22.3329 26.0696 22.5201C26.2562 22.7072 26.5094 22.8123 26.7733 22.8123H34.7357C36.0555 22.8123 37.3213 23.338 38.2545 24.2737C39.1878 25.2095 39.7121 26.4786 39.7121 27.8019C39.7121 29.1252 39.1878 30.3943 38.2545 31.33C37.3213 32.2657 36.0555 32.7914 34.7357 32.7914H32.7451V34.7872H28.7639V32.7914H23.7875V28.7998Z" fill="#D5D3F8"/>
<path d="M47.59 11.9832C44.6863 8.49308 40.7039 6.07448 36.2739 5.1107C31.8439 4.14693 27.2199 4.69312 23.1346 6.6627C19.0492 8.63228 15.7364 11.9126 13.7212 15.9837C11.7059 20.0548 11.1034 24.6839 12.0093 29.1372M51.7784 20.3683C52.8475 24.8909 52.3451 29.6438 50.3543 33.8412C48.3636 38.0387 45.0037 41.4292 40.8302 43.4523C36.6567 45.4753 31.9196 46.0097 27.402 44.9671C22.8845 43.9244 18.8572 41.3672 15.9859 37.7182" stroke="#948EEE" stroke-width="0.4009" stroke-linecap="round"/>
<path d="M48.5887 7.37598V12.8191H43.1598M20.7658 37.3131H15.3369V42.7563" stroke="#948EEE" stroke-width="0.4009" stroke-linecap="round" stroke-linejoin="round"/>
<path d="M24.9896 30.0787C24.9896 29.7612 25.247 29.5039 25.5645 29.5039H35.9378C36.2018 29.5039 36.4549 29.3987 36.6416 29.2116C36.8282 29.0245 36.9331 28.7706 36.9331 28.506C36.9331 28.2413 36.8282 27.9875 36.6416 27.8003C36.4549 27.6132 36.2018 27.5081 35.9378 27.5081H27.9755C26.6556 27.5081 25.3899 26.9824 24.4566 26.0467C23.5233 25.111 22.999 23.8418 22.999 22.5185C22.999 21.1952 23.5233 19.9261 24.4566 18.9904C25.3899 18.0547 26.6556 17.529 27.9755 17.529H29.3912C29.7087 17.529 29.9661 17.2716 29.9661 16.9542V16.1081C29.9661 15.7906 30.2234 15.5332 30.5409 15.5332H33.3724C33.6899 15.5332 33.9472 15.7906 33.9472 16.1081V16.9542C33.9472 17.2716 34.2046 17.529 34.5221 17.529H38.3488C38.6663 17.529 38.9237 17.7864 38.9237 18.1039V20.9458C38.9237 21.2633 38.6663 21.5206 38.3488 21.5206H27.9755C27.7115 21.5206 27.4584 21.6258 27.2717 21.8129C27.085 22.0001 26.9802 22.2539 26.9802 22.5185C26.9802 22.7832 27.085 23.037 27.2717 23.2242C27.4584 23.4113 27.7115 23.5164 27.9755 23.5164H35.9378C37.2576 23.5164 38.5234 24.0421 39.4567 24.9778C40.39 25.9136 40.9143 27.1827 40.9143 28.506C40.9143 29.8293 40.39 31.0984 39.4567 32.0341C38.5234 32.9698 37.2576 33.4955 35.9378 33.4955H34.5221C34.2046 33.4955 33.9472 33.7529 33.9472 34.0704V34.9165C33.9472 35.2339 33.6899 35.4913 33.3724 35.4913H30.5409C30.2234 35.4913 29.9661 35.2339 29.9661 34.9165V34.0704C29.9661 33.7529 29.7087 33.4955 29.3912 33.4955H25.5645C25.247 33.4955 24.9896 33.2381 24.9896 32.9207V30.0787Z" fill="#948EEE"/>
</svg>
