<svg width="24" height="24" viewBox="0 0 24 24" fill="none" xmlns="http://www.w3.org/2000/svg">
<path d="M15 6H13.5C13.5 5.00544 13.1049 4.05161 12.4017 3.34835C11.6984 2.64509 10.7446 2.25 9.75 2.25C8.75544 2.25 7.80161 2.64509 7.09835 3.34835C6.39509 4.05161 6 5.00544 6 6H4.5C4.5 4.60761 5.05312 3.27226 6.03769 2.28769C7.02226 1.30312 8.35761 0.75 9.75 0.75C11.1424 0.75 12.4777 1.30312 13.4623 2.28769C14.4469 3.27226 15 4.60761 15 6Z" fill="#575AE5"/>
<path d="M18.7502 11.25C18.3627 11.2514 17.9824 11.3549 17.6477 11.55C17.4455 11.2293 17.1655 10.9649 16.8338 10.7813C16.5021 10.5977 16.1293 10.501 15.7502 10.5C15.3627 10.5014 14.9824 10.6049 14.6477 10.8C14.3748 10.3706 13.9645 10.0464 13.4837 9.88026C13.0029 9.71408 12.4799 9.71576 12.0002 9.885V6C12.0002 5.40326 11.7631 4.83097 11.3412 4.40901C10.9192 3.98705 10.3469 3.75 9.75018 3.75C9.15345 3.75 8.58115 3.98705 8.15919 4.40901C7.73724 4.83097 7.50018 5.40326 7.50018 6V14.325L5.82768 13.185C5.44428 12.8995 4.97822 12.7467 4.50018 12.75C4.05392 12.7489 3.6174 12.8805 3.24614 13.1282C2.87488 13.3758 2.58564 13.7282 2.4152 14.1407C2.24476 14.5531 2.20081 15.0069 2.28895 15.4444C2.37709 15.8819 2.59333 16.2832 2.91018 16.5975L8.91018 22.0725C9.75963 22.8328 10.8602 23.2522 12.0002 23.25H15.7502C17.1426 23.25 18.4779 22.6969 19.4625 21.7123C20.4471 20.7277 21.0002 19.3924 21.0002 18V13.5C21.0002 12.9033 20.7631 12.331 20.3412 11.909C19.9192 11.4871 19.3469 11.25 18.7502 11.25ZM19.5002 18C19.5002 18.9946 19.1051 19.9484 18.4018 20.6516C17.6986 21.3549 16.7447 21.75 15.7502 21.75H12.0002C11.2421 21.7592 10.5065 21.4926 9.93018 21L3.96768 15.525C3.82912 15.3853 3.75101 15.1968 3.75018 15C3.75018 14.8607 3.78897 14.7242 3.86219 14.6057C3.93542 14.4872 4.04019 14.3915 4.16477 14.3292C4.28935 14.2669 4.42882 14.2405 4.56754 14.253C4.70626 14.2655 4.83876 14.3164 4.95018 14.4L9.00018 17.175V6C9.00018 5.80109 9.0792 5.61032 9.21985 5.46967C9.36051 5.32902 9.55127 5.25 9.75018 5.25C9.9491 5.25 10.1399 5.32902 10.2805 5.46967C10.4212 5.61032 10.5002 5.80109 10.5002 6V14.25H12.0002V12C12.0002 11.8011 12.0792 11.6103 12.2199 11.4697C12.3605 11.329 12.5513 11.25 12.7502 11.25C12.9491 11.25 13.1399 11.329 13.2805 11.4697C13.4212 11.6103 13.5002 11.8011 13.5002 12V14.25H15.0002V12.75C15.0002 12.5511 15.0792 12.3603 15.2199 12.2197C15.3605 12.079 15.5513 12 15.7502 12C15.9491 12 16.1399 12.079 16.2805 12.2197C16.4212 12.3603 16.5002 12.5511 16.5002 12.75V14.25H18.0002V13.5C18.0002 13.3011 18.0792 13.1103 18.2199 12.9697C18.3605 12.829 18.5513 12.75 18.7502 12.75C18.9491 12.75 19.1399 12.829 19.2805 12.9697C19.4212 13.1103 19.5002 13.3011 19.5002 13.5V18Z" fill="#575AE5"/>
</svg>
