<svg width="24" height="24" viewBox="0 0 24 24" fill="none" xmlns="http://www.w3.org/2000/svg">
<path d="M8.3855 10.33C8.3479 10.4813 8.25287 10.6121 8.12054 10.6945C7.9882 10.777 7.82896 10.8047 7.67655 10.7718C7.52413 10.7389 7.39052 10.6479 7.30401 10.5182C7.21751 10.3885 7.1849 10.2301 7.2131 10.0768V10.0708L7.2371 9.98439C7.2491 9.93479 7.2699 9.87239 7.2995 9.79719C7.3559 9.64959 7.4507 9.44919 7.5995 9.24519C7.79355 8.97656 8.05013 8.75926 8.34703 8.61206C8.64393 8.46486 8.97222 8.39221 9.3035 8.40039C9.9671 8.40039 10.5059 8.65839 10.8743 9.07359C11.2319 9.47799 11.3999 9.99999 11.3999 10.5004C11.3999 10.9192 11.3171 11.278 11.1539 11.5876C11.0044 11.8629 10.7968 12.1025 10.5455 12.2896C10.3608 12.4257 10.1685 12.5511 9.9695 12.6652L9.9023 12.706C9.7007 12.826 9.5351 12.9304 9.3923 13.054C8.9195 13.4632 8.6099 13.8964 8.4755 14.4004H10.7999C10.959 14.4004 11.1116 14.4636 11.2242 14.5761C11.3367 14.6886 11.3999 14.8413 11.3999 15.0004C11.3999 15.1595 11.3367 15.3121 11.2242 15.4247C11.1116 15.5372 10.959 15.6004 10.7999 15.6004H7.7999C7.64077 15.6004 7.48816 15.5372 7.37564 15.4247C7.26312 15.3121 7.1999 15.1595 7.1999 15.0004C7.1999 13.7884 7.7699 12.8716 8.6075 12.1468C8.8355 11.9476 9.0827 11.7988 9.2879 11.6752L9.3575 11.6332C9.51449 11.5442 9.66633 11.4465 9.8123 11.3404C9.92734 11.2582 10.0228 11.1517 10.0919 11.0284C10.1719 10.8643 10.2091 10.6827 10.1999 10.5004C10.2033 10.2699 10.1237 10.0458 9.9755 9.86919C9.8435 9.72039 9.6359 9.60039 9.3035 9.60039C8.9075 9.60039 8.6975 9.77559 8.5667 9.95439C8.48813 10.0637 8.4285 10.1853 8.3903 10.3144L8.3855 10.33ZM13.1999 8.40039C13.359 8.40039 13.5116 8.46361 13.6242 8.57613C13.7367 8.68865 13.7999 8.84126 13.7999 9.00039V12.0004H15.5999V9.00039C15.5999 8.84126 15.6631 8.68865 15.7756 8.57613C15.8882 8.46361 16.0408 8.40039 16.1999 8.40039C16.359 8.40039 16.5116 8.46361 16.6242 8.57613C16.7367 8.68865 16.7999 8.84126 16.7999 9.00039V15.0004C16.7999 15.1595 16.7367 15.3121 16.6242 15.4247C16.5116 15.5372 16.359 15.6004 16.1999 15.6004C16.0408 15.6004 15.8882 15.5372 15.7756 15.4247C15.6631 15.3121 15.5999 15.1595 15.5999 15.0004V13.2004H13.1999C13.0408 13.2004 12.8882 13.1372 12.7756 13.0247C12.6631 12.9121 12.5999 12.7595 12.5999 12.6004V9.00039C12.5999 8.84126 12.6631 8.68865 12.7756 8.57613C12.8882 8.46361 13.0408 8.40039 13.1999 8.40039ZM11.9999 2.40039C9.45382 2.40039 7.01203 3.41182 5.21168 5.21217C3.41133 7.01252 2.3999 9.45431 2.3999 12.0004C2.3999 14.5465 3.41133 16.9883 5.21168 18.7886C7.01203 20.589 9.45382 21.6004 11.9999 21.6004C14.546 21.6004 16.9878 20.589 18.7881 18.7886C20.5885 16.9883 21.5999 14.5465 21.5999 12.0004C21.5999 9.45431 20.5885 7.01252 18.7881 5.21217C16.9878 3.41182 14.546 2.40039 11.9999 2.40039ZM3.5999 12.0004C3.5999 10.8973 3.81717 9.80499 4.23931 8.78585C4.66145 7.76672 5.28019 6.84071 6.06021 6.06069C6.84022 5.28068 7.76623 4.66194 8.78536 4.2398C9.8045 3.81766 10.8968 3.60039 11.9999 3.60039C13.103 3.60039 14.1953 3.81766 15.2144 4.2398C16.2336 4.66194 17.1596 5.28068 17.9396 6.06069C18.7196 6.84071 19.3384 7.76672 19.7605 8.78585C20.1826 9.80499 20.3999 10.8973 20.3999 12.0004C20.3999 14.2282 19.5149 16.3648 17.9396 17.9401C16.3643 19.5154 14.2277 20.4004 11.9999 20.4004C9.77208 20.4004 7.63551 19.5154 6.06021 17.9401C4.4849 16.3648 3.5999 14.2282 3.5999 12.0004Z" fill="#575AE5"/>
</svg>
