<svg width="120" height="121" viewBox="0 0 120 121" fill="none" xmlns="http://www.w3.org/2000/svg">
<path d="M52.4595 24.8882L18.3256 37.6884V67.5556C18.3256 84.6226 29.7035 98.845 52.4595 110.223C75.2154 98.845 86.5934 84.6226 86.5934 67.5556V37.6884L52.4595 24.8882Z" stroke="#948EEE" stroke-width="0.853348" stroke-linecap="round" stroke-linejoin="round"/>
<path d="M61.4197 26.1682L27.2858 38.9684V68.8356C27.2858 85.9026 38.6637 100.125 61.4197 111.503C84.1756 100.125 95.5536 85.9026 95.5536 68.8356V38.9684L61.4197 26.1682Z" fill="#948EEE" stroke="#575AE5" stroke-width="0.853348" stroke-linecap="round" stroke-linejoin="round"/>
<path d="M74.535 57.0801C74.8701 56.807 75.3643 56.8264 75.6766 57.1387L77.4012 58.8643C77.7342 59.1973 77.735 59.737 77.4022 60.0703L56.9119 80.5791C56.7518 80.7392 56.5348 80.8292 56.3084 80.8291C56.082 80.829 55.8649 80.7392 55.7049 80.5791L45.0291 69.8838C44.6965 69.5505 44.6963 69.0108 45.0291 68.6777L46.7547 66.9521L46.8192 66.8936C47.154 66.6205 47.6483 66.6394 47.9608 66.9512L56.3074 75.2812L74.4705 57.1387L74.535 57.0801Z" fill="#575AE5" stroke="#575AE5" stroke-width="1.7067" stroke-linejoin="round"/>
<path d="M68.7536 3.07882C70.2047 2.55066 71.5576 2.34634 72.6664 2.47361C73.7762 2.60176 74.4813 3.06334 74.7012 3.66702L75.5221 5.92265C75.7419 6.5267 75.5032 7.32902 74.7305 8.1448C73.963 8.95498 72.7953 9.66809 71.3441 10.1963C69.8932 10.7243 68.5339 10.9283 67.4323 10.8011C66.3224 10.673 65.6173 10.2115 65.3975 9.60772L64.5765 7.35209C64.3568 6.74806 64.5955 5.94566 65.3682 5.12994C66.1356 4.31986 67.3027 3.60696 68.7536 3.07882ZM72.9874 6.68206C72.3364 7.13651 71.6325 7.51144 70.8925 7.79893L70.6987 7.87466L71.3924 9.78066L71.5966 9.69909C72.4942 9.33879 73.2154 8.92388 73.7738 8.49717L73.8982 8.40202L73.2141 6.52263L72.9874 6.68206ZM74.4701 5.14787C74.3135 5.41562 74.1259 5.66388 73.911 5.88758L73.9105 5.88884C73.8209 5.98306 73.7239 6.07654 73.6228 6.16917L73.5185 6.26532L74.2049 8.15113L74.4419 7.90276C74.7601 7.56922 74.9838 7.23619 75.1087 6.92531C75.2327 6.61664 75.2656 6.31142 75.1707 6.05057L74.6994 4.75574L74.4701 5.14787ZM68.8815 3.43028C67.3871 3.97427 66.3286 4.6729 65.6766 5.3492C65.351 5.68699 65.1216 6.0241 64.9934 6.33883C64.8662 6.65129 64.8321 6.96052 64.928 7.22416C65.0239 7.4878 65.2489 7.70271 65.5472 7.86033C65.8477 8.0191 66.2403 8.13075 66.707 8.1802C67.6411 8.27919 68.9011 8.13395 70.3956 7.59008C71.8902 7.04607 72.9494 6.34719 73.6014 5.67083C73.9272 5.33295 74.1561 4.99508 74.2843 4.68028C74.4115 4.36781 74.4457 4.05858 74.3497 3.79495C74.2537 3.53135 74.0288 3.31637 73.7305 3.15878C73.43 3.00006 73.0376 2.88928 72.571 2.83982C71.6368 2.74082 70.3762 2.88627 68.8815 3.43028ZM70.3472 8.00259L70.1501 8.06914C69.3984 8.32459 68.6181 8.48986 67.8274 8.56016L67.5512 8.58377L68.2356 10.4641L68.392 10.457C69.0941 10.4249 69.9129 10.2783 70.8321 9.97731L71.0409 9.90858L70.3472 8.00259ZM67.153 8.58322L67.0113 8.57659C66.8744 8.5701 66.739 8.56042 66.6104 8.54584L66.6091 8.54525C66.3008 8.51199 65.9975 8.44241 65.7054 8.33794L65.2777 8.18496L65.749 9.47979C65.8439 9.74061 66.0653 9.95329 66.3587 10.11C66.6542 10.2679 67.0397 10.3792 67.4979 10.4302L67.839 10.4681L67.153 8.58322Z" stroke="#948EEE" stroke-width="0.426674"/>
<path d="M7.6987 80.1669C9.21947 80.435 10.4933 80.9346 11.3899 81.5991C12.2869 82.265 12.6668 83.0173 12.5553 83.6501L12.1385 86.014C12.0268 86.647 11.4189 87.2225 10.3419 87.5426C9.27208 87.8605 7.90425 87.8942 6.38345 87.626C4.86282 87.3578 3.58372 86.8549 2.69326 86.1939C1.79617 85.528 1.41627 84.7758 1.52778 84.143L1.94461 81.7791C2.05634 81.1461 2.66428 80.5706 3.74125 80.2505C4.81092 79.9327 6.17812 79.8988 7.6987 80.1669ZM9.56366 85.4043C8.77268 85.4724 7.97559 85.4451 7.19096 85.3241L6.98527 85.2927L6.63305 87.2903L6.85063 87.3217C7.80817 87.4585 8.64017 87.4597 9.33715 87.3694L9.49243 87.3492L9.83973 85.3796L9.56366 85.4043ZM11.6148 84.817C11.3453 84.9706 11.0587 85.0918 10.7608 85.1781L10.7597 85.1789C10.635 85.2157 10.5043 85.2481 10.3703 85.2778L10.232 85.3089L9.88349 87.2853L10.2129 87.1887C10.6552 87.0589 11.0155 86.8824 11.2791 86.6756C11.5408 86.4703 11.7219 86.2224 11.7702 85.949L12.0094 84.592L11.6148 84.817ZM7.63375 80.5352C6.06756 80.2591 4.80151 80.3349 3.89873 80.5946C3.44784 80.7243 3.0806 80.9015 2.81225 81.11C2.54586 81.317 2.36174 81.5678 2.31295 81.844C2.26423 82.1203 2.35159 82.4189 2.53109 82.7046C2.71198 82.9923 2.99613 83.2853 3.37558 83.5615C4.13509 84.1143 5.29889 84.6185 6.86505 84.8947C8.43146 85.1709 9.69817 85.0953 10.601 84.8355C11.0521 84.7058 11.4193 84.5277 11.6877 84.3191C11.9541 84.1121 12.1383 83.8614 12.187 83.5851C12.2356 83.3088 12.1484 83.0102 11.9688 82.7246C11.788 82.4369 11.5035 82.1447 11.1242 81.8686C10.3646 81.3158 9.20017 80.8114 7.63375 80.5352ZM6.61693 85.2278L6.41293 85.1869C5.63422 85.0323 4.87587 84.7852 4.15588 84.4507L3.90491 84.3331L3.55745 86.3037L3.69645 86.3758C4.32048 86.699 5.10297 86.9815 6.04951 87.1804L6.26471 87.2253L6.61693 85.2278ZM3.56031 84.1335L3.44094 84.0569C3.32564 83.9829 3.21319 83.9068 3.10912 83.8299L3.10833 83.8287C2.85789 83.6457 2.63001 83.4338 2.42933 83.1973L2.1354 82.851L1.89612 84.208C1.84796 84.4813 1.93334 84.7762 2.10906 85.0587C2.28604 85.3431 2.56422 85.6322 2.93551 85.9055L3.212 86.1089L3.56031 84.1335Z" stroke="#948EEE" stroke-width="0.426674"/>
<path d="M112.184 72.1635C113.7 71.8688 115.068 71.8787 116.144 72.1778C117.22 72.478 117.844 73.0442 117.967 73.6748L118.425 76.0311C118.547 76.6621 118.186 77.4172 117.295 78.1021C116.41 78.7822 115.146 79.3039 113.63 79.5985C112.114 79.8931 110.739 79.8819 109.671 79.584C108.595 79.2838 107.971 78.7177 107.848 78.087L107.39 75.7307C107.268 75.0997 107.629 74.3445 108.52 73.6597C109.404 72.9797 110.669 72.4581 112.184 72.1635ZM115.802 76.3847C115.088 76.7317 114.334 76.9919 113.559 77.1601L113.355 77.2045L113.742 79.1956L113.957 79.147C114.9 78.9315 115.677 78.6345 116.295 78.3004L116.433 78.2259L116.051 76.2627L115.802 76.3847ZM117.507 75.1013C117.31 75.3413 117.086 75.5571 116.839 75.7445L116.838 75.7456C116.735 75.8247 116.625 75.9018 116.51 75.9775L116.392 76.0561L116.775 78.0261L117.048 77.8179C117.414 77.5382 117.688 77.2443 117.86 76.9568C118.03 76.6713 118.11 76.375 118.058 76.1025L117.795 74.7499L117.507 75.1013ZM112.256 72.5306C110.695 72.8341 109.54 73.3586 108.79 73.9245C108.416 74.2072 108.136 74.5043 107.96 74.7951C107.786 75.0838 107.704 75.3839 107.757 75.6593C107.811 75.9347 107.999 76.1822 108.269 76.3845C108.541 76.5883 108.912 76.76 109.365 76.8819C110.272 77.1258 111.539 77.1794 113.1 76.8761C114.662 76.5726 115.817 76.048 116.567 75.4819C116.942 75.1992 117.221 74.9013 117.396 74.6104C117.571 74.3217 117.653 74.0216 117.6 73.7462C117.546 73.4708 117.357 73.2233 117.088 73.021C116.816 72.8172 116.445 72.6464 115.992 72.5246C115.085 72.2807 113.817 72.2271 112.256 72.5306ZM112.988 77.2759L112.783 77.3108C112.001 77.4455 111.204 77.4867 110.412 77.4324L110.136 77.4126L110.517 79.3768L110.673 79.3943C111.371 79.4724 112.203 79.4557 113.158 79.3022L113.375 79.267L112.988 77.2759ZM109.742 77.3497L109.603 77.321C109.469 77.2932 109.337 77.2624 109.212 77.2279L109.211 77.2271C108.912 77.146 108.623 77.0299 108.351 76.881L107.952 76.663L108.215 78.0156C108.268 78.2881 108.454 78.5328 108.719 78.7335C108.986 78.9356 109.35 79.1059 109.794 79.2279L110.125 79.3187L109.742 77.3497Z" stroke="#948EEE" stroke-width="0.426674"/>
<path d="M112.213 82.4888C104.274 104.389 83.2878 120.037 58.6462 120.037C37.1689 120.037 18.4684 108.15 8.76343 90.5962H9.25171C18.9161 107.905 37.414 119.61 58.6462 119.61C83.0487 119.61 103.839 104.149 111.759 82.4888H112.213ZM58.6462 6.11475C60.2992 6.11475 61.9362 6.18574 63.5535 6.32373V6.75146C61.9364 6.61244 60.2994 6.5415 58.6462 6.5415C27.4232 6.54153 2.11209 31.8527 2.11206 63.0757C2.11206 68.3222 2.82751 73.4016 4.16479 78.2222H3.72241C2.39534 73.3992 1.6853 68.3204 1.6853 63.0757C1.68533 31.617 27.1876 6.11477 58.6462 6.11475ZM75.073 8.52002C98.5234 15.5712 115.607 37.328 115.607 63.0757C115.607 65.3126 115.478 67.5193 115.227 69.689H114.798C115.05 67.5196 115.18 65.3128 115.18 63.0757C115.18 37.566 98.2844 16.0037 75.073 8.96631V8.52002Z" fill="#948EEE"/>
</svg>
