<svg width="280" height="280" viewBox="0 0 280 280" fill="none" xmlns="http://www.w3.org/2000/svg">
<path d="M97.4642 43.5695C97.4642 43.5695 124.258 74.2855 181.942 39.1899C233.172 8.02185 255.12 78.4983 249.092 108.82C241.283 148.1 191.536 170.514 207.185 200.618C222.833 230.723 151.414 260.28 125.302 216.479C92.8188 161.993 73.7381 196.84 49.8138 191.881C32.6433 188.323 6.2326 138.352 36.6167 111.545C62.1844 88.9869 53.0963 77.8582 49.7242 67.5017C44.8606 52.5654 70.4974 20.0728 97.4642 43.5695Z" fill="#DDDCFA"/>
<path d="M65.6068 194.418L204.031 194.194C205.252 194.192 206.461 193.949 207.589 193.48C208.716 193.011 209.74 192.324 210.602 191.459C211.465 190.594 212.148 189.568 212.614 188.439C213.079 187.31 213.318 186.1 213.316 184.879L213.178 99.3745C213.176 98.1532 212.933 96.9442 212.464 95.8167C211.995 94.6891 211.308 93.665 210.443 92.8028C209.578 91.9406 208.552 91.2572 207.423 90.7917C206.294 90.3261 205.084 90.0875 203.863 90.0895L64.5124 90.1077C59.7655 90.1077 55.968 85.5643 56.1388 81.6699V90.3279L56.2919 185.132C56.2938 186.353 56.5362 187.562 57.0054 188.69C57.4745 189.818 58.1612 190.842 59.0261 191.704C59.8911 192.566 60.9175 193.25 62.0466 193.715C63.1757 194.181 64.3854 194.42 65.6068 194.418Z" fill="#948EEE"/>
<path d="M160.084 124.211L213.429 124.124C215.286 124.121 217.068 124.856 218.382 126.166C219.697 127.477 220.438 129.256 220.441 131.113L220.476 153.115C220.48 154.972 219.745 156.754 218.434 158.068C217.124 159.383 215.344 160.124 213.488 160.127L160.142 160.213C159.787 160.214 159.446 160.073 159.194 159.822C158.943 159.572 158.801 159.231 158.8 158.876L158.746 125.552C158.746 125.197 158.886 124.856 159.137 124.605C159.388 124.353 159.728 124.211 160.084 124.211Z" fill="#575AE5"/>
<path d="M177.408 150.427C181.959 150.427 185.649 146.737 185.649 142.185C185.649 137.633 181.959 133.943 177.408 133.943C172.856 133.943 169.166 137.633 169.166 142.185C169.166 146.737 172.856 150.427 177.408 150.427Z" fill="white"/>
<path d="M63.1387 72.1934H182.71C184.567 72.1934 186.347 72.9309 187.66 74.2436C188.973 75.5564 189.71 77.3368 189.71 79.1934V90.1085H65.1347C62.7488 90.1085 60.4606 89.1607 58.7735 87.4736C57.0865 85.7865 56.1387 83.4984 56.1387 81.1125V79.1934C56.1387 77.3368 56.8762 75.5564 58.1889 74.2436C59.5017 72.9309 61.2822 72.1934 63.1387 72.1934Z" fill="#575AE5"/>
<path d="M156.216 80.0596C156.053 80.0598 155.896 80.0033 155.77 79.8999C155.645 79.7966 155.559 79.6527 155.528 79.4931C155.497 79.3335 155.522 79.1681 155.6 79.0252C155.678 78.8824 155.803 78.7711 155.954 78.7103C155.982 78.6987 156.671 78.4215 157.936 77.9561C158.11 77.892 158.303 77.8998 158.471 77.9776C158.64 78.0555 158.771 78.1971 158.835 78.3714C158.899 78.5456 158.891 78.7382 158.813 78.9067C158.735 79.0752 158.594 79.2059 158.419 79.27C157.175 79.728 156.484 80.006 156.477 80.0087C156.394 80.0423 156.305 80.0596 156.216 80.0596Z" fill="#418DF9"/>
<path d="M185.511 241.254C185.023 241.254 184.526 241.245 184.033 241.225C183.94 241.222 183.849 241.201 183.765 241.162C183.681 241.124 183.606 241.07 183.543 241.002C183.48 240.935 183.431 240.855 183.399 240.769C183.367 240.682 183.352 240.59 183.356 240.498C183.36 240.405 183.381 240.315 183.42 240.231C183.459 240.147 183.514 240.072 183.582 240.01C183.65 239.947 183.73 239.899 183.817 239.867C183.903 239.836 183.995 239.822 184.088 239.826C185.47 239.882 186.855 239.855 188.235 239.746C188.327 239.739 188.419 239.749 188.506 239.778C188.594 239.806 188.675 239.851 188.745 239.911C188.815 239.97 188.872 240.043 188.914 240.125C188.956 240.207 188.981 240.296 188.989 240.388C188.996 240.479 188.985 240.572 188.957 240.659C188.929 240.747 188.884 240.828 188.824 240.898C188.764 240.968 188.692 241.025 188.61 241.067C188.528 241.109 188.439 241.134 188.347 241.142C187.418 241.216 186.464 241.254 185.511 241.254ZM179.85 240.832C179.816 240.832 179.782 240.83 179.749 240.825C178.383 240.627 176.964 240.355 175.532 240.018C175.351 239.975 175.195 239.863 175.097 239.705C174.999 239.547 174.968 239.357 175.011 239.176C175.053 238.995 175.166 238.839 175.324 238.741C175.482 238.643 175.672 238.612 175.853 238.655C177.245 238.983 178.624 239.247 179.949 239.439C180.125 239.464 180.284 239.555 180.395 239.693C180.506 239.831 180.561 240.005 180.548 240.182C180.535 240.358 180.456 240.524 180.327 240.644C180.197 240.765 180.027 240.832 179.85 240.832V240.832ZM192.476 240.534C192.303 240.534 192.136 240.47 192.007 240.355C191.879 240.239 191.798 240.08 191.78 239.907C191.762 239.735 191.808 239.563 191.91 239.423C192.011 239.283 192.161 239.186 192.33 239.15C193.68 238.861 195.01 238.484 196.311 238.022C196.485 237.96 196.678 237.969 196.846 238.049C197.013 238.129 197.142 238.272 197.205 238.447C197.267 238.622 197.257 238.814 197.177 238.982C197.098 239.149 196.955 239.279 196.78 239.341C195.421 239.824 194.033 240.218 192.623 240.519C192.574 240.529 192.525 240.534 192.476 240.534V240.534ZM171.609 238.914C171.538 238.914 171.468 238.903 171.4 238.882C170.1 238.476 168.741 238.007 167.358 237.489C167.184 237.424 167.043 237.292 166.966 237.123C166.889 236.954 166.883 236.761 166.948 236.587C167.013 236.414 167.145 236.273 167.314 236.196C167.483 236.119 167.676 236.113 167.85 236.178C169.208 236.687 170.542 237.147 171.818 237.546C171.977 237.595 172.114 237.701 172.203 237.843C172.291 237.985 172.326 238.154 172.301 238.319C172.276 238.485 172.192 238.636 172.065 238.745C171.938 238.854 171.776 238.914 171.609 238.914ZM200.432 237.714C200.274 237.714 200.121 237.661 199.997 237.563C199.874 237.466 199.787 237.329 199.75 237.176C199.713 237.023 199.73 236.862 199.796 236.719C199.863 236.576 199.975 236.46 200.116 236.389C201.351 235.763 202.55 235.069 203.707 234.309C203.784 234.257 203.87 234.222 203.961 234.204C204.052 234.186 204.145 234.186 204.236 234.205C204.326 234.223 204.412 234.259 204.489 234.311C204.565 234.363 204.631 234.43 204.682 234.507C204.732 234.584 204.767 234.671 204.784 234.762C204.801 234.853 204.8 234.946 204.781 235.036C204.762 235.127 204.725 235.212 204.672 235.288C204.62 235.365 204.552 235.429 204.475 235.479C203.273 236.269 202.029 236.99 200.746 237.639C200.649 237.688 200.541 237.714 200.432 237.714ZM163.671 235.955C163.576 235.955 163.483 235.936 163.397 235.899C162.16 235.372 160.851 234.787 159.505 234.16C159.421 234.122 159.345 234.067 159.282 234C159.219 233.932 159.17 233.852 159.138 233.766C159.106 233.679 159.091 233.587 159.095 233.494C159.099 233.402 159.121 233.311 159.16 233.227C159.199 233.143 159.254 233.068 159.323 233.005C159.391 232.943 159.471 232.895 159.558 232.864C159.645 232.832 159.738 232.819 159.83 232.824C159.923 232.828 160.013 232.851 160.097 232.891C161.428 233.511 162.723 234.09 163.945 234.611C164.094 234.674 164.216 234.787 164.291 234.929C164.366 235.072 164.389 235.237 164.357 235.395C164.325 235.553 164.239 235.695 164.114 235.797C163.988 235.899 163.832 235.955 163.671 235.955V235.955ZM207.507 233.099C207.363 233.099 207.221 233.054 207.103 232.97C206.985 232.887 206.895 232.768 206.847 232.632C206.799 232.495 206.794 232.347 206.834 232.208C206.873 232.068 206.955 231.945 207.068 231.854C208.116 231.008 209.17 230.081 210.2 229.097C210.334 228.969 210.514 228.899 210.699 228.904C210.885 228.908 211.061 228.986 211.189 229.12C211.317 229.254 211.387 229.434 211.383 229.62C211.379 229.805 211.301 229.982 211.166 230.11C210.108 231.12 209.024 232.074 207.946 232.943C207.822 233.044 207.667 233.099 207.508 233.099L207.507 233.099ZM155.981 232.386C155.873 232.386 155.767 232.361 155.671 232.313C154.49 231.729 153.249 231.101 151.878 230.394C151.796 230.352 151.724 230.294 151.664 230.224C151.605 230.154 151.56 230.072 151.532 229.985C151.504 229.897 151.494 229.805 151.501 229.713C151.509 229.622 151.535 229.533 151.577 229.451C151.619 229.369 151.677 229.297 151.747 229.237C151.817 229.178 151.898 229.133 151.986 229.105C152.073 229.077 152.166 229.066 152.257 229.074C152.349 229.082 152.438 229.107 152.52 229.149C153.884 229.853 155.118 230.477 156.292 231.059C156.434 231.129 156.547 231.245 156.615 231.388C156.682 231.531 156.699 231.692 156.663 231.846C156.627 232 156.54 232.137 156.416 232.235C156.292 232.333 156.139 232.386 155.981 232.386ZM148.44 228.51C148.326 228.51 148.214 228.482 148.114 228.429C146.948 227.815 145.778 227.195 144.603 226.571L144.365 226.445C144.283 226.402 144.21 226.344 144.151 226.273C144.091 226.202 144.046 226.12 144.019 226.032C143.991 225.944 143.981 225.851 143.99 225.759C143.998 225.666 144.025 225.577 144.068 225.495C144.112 225.413 144.171 225.341 144.242 225.282C144.314 225.224 144.396 225.18 144.485 225.153C144.574 225.126 144.667 225.117 144.759 225.127C144.851 225.136 144.94 225.164 145.021 225.208L145.259 225.334C146.433 225.957 147.602 226.576 148.767 227.191C148.905 227.264 149.015 227.381 149.079 227.524C149.143 227.666 149.158 227.826 149.12 227.978C149.082 228.13 148.995 228.265 148.872 228.361C148.748 228.458 148.596 228.51 148.44 228.51L148.44 228.51ZM213.635 227.272C213.499 227.272 213.366 227.232 213.253 227.158C213.139 227.084 213.049 226.979 212.995 226.855C212.94 226.731 212.922 226.594 212.944 226.46C212.965 226.326 213.026 226.201 213.117 226.101C214.026 225.101 214.942 224.029 215.839 222.915C215.956 222.773 216.125 222.682 216.308 222.664C216.492 222.645 216.675 222.699 216.818 222.815C216.962 222.93 217.054 223.098 217.075 223.281C217.096 223.464 217.043 223.648 216.929 223.793C216.015 224.929 215.081 226.022 214.153 227.043C214.087 227.115 214.007 227.173 213.918 227.212C213.829 227.252 213.732 227.272 213.635 227.272V227.272ZM140.95 224.548C140.837 224.548 140.725 224.52 140.625 224.467C139.239 223.738 138.011 223.099 136.873 222.514C136.708 222.429 136.583 222.282 136.526 222.105C136.469 221.929 136.485 221.736 136.57 221.571C136.655 221.406 136.802 221.281 136.979 221.224C137.156 221.168 137.348 221.183 137.513 221.268C138.655 221.855 139.886 222.496 141.276 223.227C141.415 223.3 141.525 223.417 141.589 223.56C141.653 223.703 141.668 223.863 141.63 224.015C141.593 224.167 141.505 224.302 141.382 224.398C141.259 224.495 141.106 224.547 140.95 224.547L140.95 224.548ZM218.953 220.69C218.824 220.689 218.697 220.654 218.587 220.586C218.477 220.519 218.388 220.422 218.329 220.307C218.271 220.192 218.245 220.064 218.255 219.935C218.265 219.806 218.311 219.683 218.386 219.579C219.184 218.478 219.989 217.315 220.779 216.122C220.881 215.967 221.041 215.86 221.223 215.823C221.405 215.785 221.594 215.822 221.749 215.925C221.904 216.027 222.011 216.187 222.048 216.369C222.085 216.551 222.049 216.74 221.946 216.895C221.146 218.104 220.33 219.284 219.52 220.401C219.455 220.49 219.37 220.563 219.271 220.614C219.173 220.664 219.063 220.69 218.953 220.69V220.69ZM133.41 220.681C133.302 220.681 133.196 220.656 133.099 220.608C131.766 219.947 130.521 219.347 129.294 218.771C129.128 218.69 129.001 218.548 128.939 218.374C128.878 218.201 128.887 218.01 128.965 217.843C129.044 217.677 129.184 217.548 129.357 217.484C129.53 217.42 129.721 217.427 129.888 217.503C131.124 218.083 132.378 218.688 133.721 219.353C133.862 219.423 133.976 219.539 134.043 219.682C134.111 219.825 134.128 219.987 134.092 220.14C134.056 220.294 133.969 220.431 133.845 220.529C133.721 220.627 133.568 220.681 133.41 220.681ZM125.728 217.086C125.631 217.086 125.536 217.066 125.448 217.027C124.122 216.448 122.811 215.902 121.554 215.402C121.468 215.368 121.391 215.318 121.325 215.254C121.259 215.19 121.206 215.114 121.169 215.029C121.133 214.945 121.114 214.854 121.112 214.762C121.111 214.67 121.128 214.579 121.162 214.493C121.195 214.408 121.246 214.33 121.31 214.264C121.374 214.198 121.45 214.145 121.535 214.109C121.619 214.073 121.71 214.053 121.802 214.052C121.894 214.05 121.985 214.067 122.071 214.101C123.343 214.606 124.667 215.159 126.008 215.744C126.155 215.808 126.276 215.921 126.35 216.064C126.423 216.207 126.446 216.371 126.413 216.529C126.38 216.686 126.294 216.827 126.169 216.929C126.044 217.03 125.888 217.086 125.728 217.086ZM117.84 213.964C117.761 213.964 117.682 213.95 117.608 213.924C116.256 213.45 114.91 213.012 113.606 212.622C113.518 212.596 113.436 212.552 113.365 212.494C113.294 212.436 113.234 212.365 113.191 212.284C113.147 212.203 113.12 212.114 113.11 212.023C113.101 211.932 113.11 211.839 113.136 211.751C113.162 211.663 113.206 211.581 113.264 211.51C113.322 211.438 113.393 211.379 113.474 211.335C113.555 211.292 113.644 211.264 113.735 211.255C113.826 211.246 113.919 211.254 114.007 211.281C115.332 211.677 116.7 212.121 118.072 212.603C118.228 212.658 118.359 212.766 118.443 212.908C118.527 213.051 118.558 213.218 118.53 213.381C118.502 213.544 118.418 213.692 118.291 213.799C118.165 213.905 118.005 213.964 117.84 213.964ZM223.63 213.634C223.506 213.634 223.384 213.6 223.277 213.538C223.17 213.475 223.081 213.385 223.02 213.276C222.96 213.168 222.929 213.045 222.931 212.921C222.933 212.797 222.968 212.676 223.033 212.57C223.743 211.404 224.461 210.182 225.165 208.937C225.209 208.855 225.269 208.783 225.342 208.725C225.414 208.666 225.498 208.623 225.587 208.597C225.677 208.571 225.771 208.563 225.863 208.574C225.956 208.585 226.045 208.614 226.126 208.66C226.207 208.706 226.278 208.768 226.335 208.842C226.392 208.915 226.434 209 226.458 209.09C226.482 209.18 226.488 209.274 226.475 209.366C226.462 209.458 226.431 209.547 226.383 209.627C225.671 210.884 224.946 212.119 224.228 213.298C224.166 213.401 224.078 213.486 223.973 213.545C223.868 213.603 223.75 213.634 223.63 213.634V213.634ZM80.4335 212.041C80.2657 212.041 80.1035 211.981 79.9764 211.871C79.8493 211.762 79.7658 211.61 79.741 211.444C79.7163 211.278 79.752 211.109 79.8417 210.967C79.9313 210.825 80.0689 210.72 80.2294 210.671C81.5997 210.253 82.9968 209.887 84.3814 209.585C84.5628 209.545 84.7525 209.579 84.9087 209.679C85.065 209.78 85.1751 209.938 85.2147 210.119C85.2543 210.301 85.2202 210.49 85.12 210.647C85.0197 210.803 84.8615 210.913 84.6802 210.953C83.3325 211.247 81.9726 211.603 80.6382 212.01C80.5719 212.031 80.5029 212.041 80.4335 212.041ZM109.714 211.548C109.659 211.548 109.604 211.541 109.55 211.529C108.171 211.197 106.79 210.91 105.446 210.675C105.266 210.64 105.106 210.536 105.001 210.385C104.897 210.234 104.856 210.047 104.888 209.866C104.919 209.685 105.021 209.524 105.171 209.417C105.321 209.31 105.506 209.267 105.688 209.296C107.06 209.536 108.469 209.829 109.877 210.167C110.044 210.207 110.191 210.306 110.289 210.447C110.387 210.588 110.43 210.759 110.41 210.93C110.39 211.1 110.308 211.257 110.18 211.371C110.052 211.485 109.886 211.548 109.714 211.548V211.548ZM88.7017 210.237C88.524 210.237 88.3529 210.169 88.2233 210.047C88.0936 209.926 88.015 209.76 88.0033 209.582C87.9917 209.405 88.048 209.23 88.1606 209.093C88.2733 208.955 88.4341 208.866 88.6102 208.843C90.0185 208.655 91.457 208.524 92.8857 208.453C92.9775 208.448 93.0693 208.462 93.1559 208.492C93.2425 208.523 93.3222 208.571 93.3904 208.633C93.4586 208.694 93.5139 208.769 93.5533 208.852C93.5927 208.935 93.6153 209.025 93.6199 209.117C93.6245 209.209 93.611 209.3 93.5801 209.387C93.5492 209.474 93.5016 209.553 93.4399 209.622C93.3782 209.69 93.3037 209.745 93.2206 209.784C93.1375 209.824 93.0475 209.846 92.9557 209.851C91.5652 209.921 90.1654 210.048 88.7949 210.23C88.764 210.235 88.7328 210.237 88.7017 210.237ZM101.379 210.097C101.354 210.097 101.33 210.095 101.305 210.093C99.9088 209.946 98.505 209.851 97.1348 209.81C96.9492 209.805 96.7733 209.726 96.646 209.59C96.5187 209.455 96.4503 209.275 96.4558 209.089C96.4614 208.904 96.5405 208.728 96.6757 208.6C96.8109 208.473 96.9912 208.405 97.1768 208.41C98.5823 208.452 100.021 208.55 101.451 208.7C101.63 208.719 101.794 208.805 101.91 208.942C102.026 209.078 102.086 209.254 102.077 209.432C102.067 209.611 101.99 209.78 101.86 209.903C101.73 210.027 101.558 210.096 101.379 210.096L101.379 210.097ZM227.807 206.268C227.686 206.268 227.567 206.237 227.462 206.177C227.357 206.118 227.269 206.032 227.207 205.929C227.145 205.825 227.111 205.708 227.107 205.587C227.104 205.466 227.132 205.347 227.189 205.24C227.831 204.027 228.479 202.765 229.115 201.488C229.156 201.406 229.213 201.332 229.282 201.272C229.351 201.212 229.432 201.166 229.519 201.137C229.606 201.107 229.698 201.096 229.79 201.102C229.882 201.108 229.971 201.133 230.054 201.174C230.136 201.215 230.209 201.271 230.27 201.341C230.33 201.41 230.376 201.491 230.405 201.578C230.434 201.665 230.446 201.757 230.44 201.849C230.433 201.941 230.409 202.03 230.368 202.112C229.727 203.4 229.073 204.672 228.426 205.895C228.366 206.008 228.277 206.102 228.168 206.168C228.059 206.233 227.934 206.268 227.807 206.268V206.268ZM231.587 198.689C231.469 198.689 231.353 198.659 231.249 198.602C231.146 198.545 231.059 198.463 230.996 198.363C230.933 198.264 230.896 198.15 230.888 198.032C230.881 197.914 230.904 197.797 230.954 197.69C231.54 196.445 232.133 195.154 232.715 193.853C232.752 193.769 232.806 193.694 232.873 193.63C232.939 193.567 233.018 193.518 233.104 193.485C233.19 193.452 233.281 193.437 233.373 193.439C233.465 193.442 233.556 193.463 233.64 193.5C233.723 193.538 233.799 193.591 233.862 193.658C233.925 193.725 233.975 193.804 234.008 193.889C234.04 193.975 234.056 194.067 234.053 194.159C234.051 194.251 234.03 194.341 233.993 194.425C233.407 195.734 232.811 197.033 232.22 198.287C232.164 198.407 232.074 198.508 231.962 198.579C231.85 198.65 231.72 198.688 231.588 198.688L231.587 198.689ZM235.048 190.957C234.932 190.957 234.818 190.929 234.717 190.874C234.615 190.819 234.528 190.74 234.464 190.643C234.4 190.547 234.361 190.436 234.351 190.321C234.34 190.205 234.359 190.089 234.404 189.983C234.945 188.716 235.491 187.404 236.03 186.084C236.063 185.997 236.114 185.918 236.178 185.852C236.243 185.785 236.32 185.732 236.405 185.695C236.491 185.659 236.582 185.639 236.675 185.639C236.768 185.638 236.86 185.655 236.946 185.69C237.032 185.725 237.11 185.777 237.175 185.843C237.241 185.908 237.293 185.986 237.329 186.072C237.364 186.157 237.382 186.249 237.381 186.342C237.381 186.435 237.362 186.527 237.326 186.612C236.785 187.939 236.235 189.258 235.692 190.532C235.638 190.658 235.549 190.766 235.434 190.841C235.32 190.917 235.186 190.957 235.049 190.957L235.048 190.957ZM238.248 183.114C238.134 183.114 238.022 183.086 237.921 183.033C237.82 182.98 237.734 182.903 237.67 182.809C237.606 182.714 237.566 182.606 237.553 182.493C237.54 182.38 237.555 182.265 237.596 182.159C238.099 180.873 238.608 179.546 239.108 178.212C239.174 178.038 239.305 177.898 239.474 177.821C239.643 177.744 239.836 177.738 240.01 177.803C240.184 177.868 240.324 178 240.401 178.169C240.478 178.338 240.484 178.531 240.419 178.705C239.915 180.044 239.404 181.378 238.9 182.669C238.848 182.8 238.759 182.912 238.643 182.992C238.527 183.071 238.389 183.114 238.248 183.114L238.248 183.114ZM241.23 175.184C241.118 175.184 241.007 175.157 240.907 175.105C240.807 175.053 240.722 174.978 240.657 174.886C240.593 174.794 240.551 174.688 240.536 174.577C240.522 174.465 240.534 174.352 240.572 174.246C241.043 172.946 241.52 171.605 241.989 170.263C242.019 170.175 242.065 170.094 242.127 170.024C242.188 169.954 242.262 169.897 242.345 169.857C242.428 169.816 242.519 169.792 242.611 169.787C242.704 169.781 242.796 169.794 242.884 169.825C242.971 169.855 243.052 169.903 243.121 169.965C243.19 170.027 243.246 170.102 243.285 170.185C243.325 170.269 243.348 170.36 243.352 170.452C243.357 170.545 243.342 170.637 243.311 170.725C242.84 172.072 242.361 173.417 241.888 174.723C241.839 174.858 241.75 174.975 241.632 175.057C241.514 175.14 241.374 175.184 241.231 175.184L241.23 175.184ZM244.022 167.185C243.911 167.185 243.802 167.158 243.703 167.108C243.604 167.057 243.519 166.984 243.454 166.894C243.389 166.804 243.347 166.699 243.33 166.59C243.313 166.48 243.323 166.368 243.358 166.262C243.81 164.912 244.251 163.56 244.67 162.244C244.727 162.068 244.851 161.92 245.016 161.835C245.181 161.75 245.373 161.734 245.55 161.79C245.727 161.846 245.874 161.971 245.959 162.135C246.045 162.3 246.061 162.492 246.005 162.669C245.583 163.992 245.14 165.35 244.686 166.707C244.639 166.846 244.55 166.967 244.431 167.052C244.312 167.138 244.169 167.184 244.023 167.185L244.022 167.185ZM246.592 159.11C246.483 159.11 246.375 159.085 246.278 159.035C246.18 158.986 246.095 158.915 246.03 158.828C245.965 158.74 245.921 158.638 245.902 158.531C245.884 158.423 245.89 158.313 245.922 158.208C246.331 156.85 246.729 155.486 247.106 154.152C247.157 153.974 247.276 153.822 247.438 153.732C247.6 153.641 247.792 153.619 247.97 153.669C248.149 153.72 248.3 153.839 248.391 154.001C248.481 154.163 248.504 154.355 248.453 154.533C248.074 155.874 247.674 157.246 247.262 158.612C247.219 158.756 247.13 158.882 247.01 158.972C246.889 159.061 246.743 159.11 246.593 159.11L246.592 159.11ZM248.895 150.955C248.788 150.955 248.683 150.931 248.586 150.884C248.49 150.836 248.406 150.768 248.341 150.683C248.275 150.598 248.23 150.499 248.209 150.394C248.188 150.289 248.191 150.181 248.218 150.077C248.579 148.702 248.927 147.325 249.25 145.983C249.295 145.804 249.409 145.65 249.567 145.554C249.725 145.458 249.914 145.429 250.093 145.472C250.273 145.516 250.428 145.628 250.525 145.785C250.622 145.942 250.653 146.131 250.611 146.311C250.285 147.662 249.936 149.049 249.572 150.433C249.533 150.583 249.445 150.715 249.323 150.809C249.201 150.904 249.05 150.955 248.896 150.955L248.895 150.955ZM250.88 142.717C250.775 142.717 250.672 142.694 250.577 142.649C250.483 142.604 250.4 142.538 250.334 142.457C250.268 142.375 250.222 142.28 250.198 142.178C250.174 142.076 250.173 141.971 250.195 141.868C250.498 140.478 250.783 139.087 251.043 137.735C251.059 137.644 251.094 137.557 251.144 137.48C251.195 137.402 251.26 137.336 251.336 137.283C251.412 137.231 251.498 137.195 251.589 137.176C251.679 137.157 251.773 137.156 251.863 137.174C251.954 137.191 252.04 137.226 252.118 137.277C252.195 137.328 252.261 137.394 252.312 137.471C252.364 137.548 252.4 137.634 252.418 137.724C252.436 137.815 252.436 137.908 252.418 137.999C252.156 139.363 251.868 140.765 251.564 142.166C251.53 142.322 251.443 142.462 251.319 142.562C251.194 142.663 251.039 142.717 250.88 142.717ZM252.475 134.396C252.373 134.396 252.273 134.374 252.181 134.331C252.088 134.288 252.007 134.226 251.941 134.149C251.875 134.072 251.827 133.981 251.8 133.883C251.772 133.785 251.767 133.683 251.783 133.582C252.014 132.175 252.223 130.772 252.404 129.413C252.415 129.321 252.444 129.232 252.49 129.152C252.536 129.071 252.597 129 252.67 128.944C252.743 128.887 252.827 128.846 252.916 128.821C253.006 128.797 253.099 128.791 253.191 128.803C253.283 128.816 253.371 128.846 253.451 128.893C253.531 128.939 253.601 129.001 253.657 129.075C253.713 129.149 253.753 129.233 253.776 129.323C253.799 129.412 253.805 129.506 253.791 129.597C253.609 130.97 253.398 132.387 253.165 133.809C253.138 133.972 253.054 134.121 252.928 134.229C252.802 134.336 252.641 134.395 252.476 134.396H252.475ZM253.587 125.997C253.564 125.997 253.541 125.996 253.517 125.993C253.425 125.984 253.337 125.957 253.256 125.914C253.174 125.871 253.103 125.812 253.044 125.741C252.986 125.67 252.942 125.588 252.916 125.5C252.889 125.412 252.88 125.32 252.889 125.228C253.029 123.81 253.141 122.398 253.223 121.032C253.235 120.846 253.319 120.673 253.458 120.55C253.597 120.427 253.779 120.364 253.964 120.375C254.15 120.386 254.323 120.47 254.446 120.609C254.569 120.748 254.632 120.93 254.621 121.116C254.538 122.5 254.424 123.93 254.282 125.366C254.265 125.538 254.185 125.698 254.056 125.815C253.928 125.932 253.761 125.996 253.588 125.997H253.587ZM254.087 117.541H254.076C253.984 117.539 253.893 117.52 253.809 117.483C253.724 117.447 253.648 117.394 253.584 117.328C253.52 117.262 253.47 117.184 253.436 117.098C253.402 117.013 253.386 116.921 253.387 116.83C253.395 116.336 253.399 115.843 253.399 115.365C253.399 114.446 253.384 113.525 253.355 112.628C253.351 112.535 253.365 112.443 253.397 112.356C253.429 112.269 253.478 112.19 253.54 112.122C253.603 112.054 253.679 111.999 253.763 111.961C253.847 111.922 253.938 111.901 254.031 111.898C254.123 111.895 254.216 111.91 254.302 111.943C254.389 111.976 254.468 112.025 254.535 112.089C254.602 112.153 254.656 112.229 254.694 112.313C254.731 112.398 254.752 112.489 254.754 112.582C254.784 113.494 254.799 114.431 254.799 115.365C254.799 115.851 254.795 116.351 254.787 116.852C254.784 117.036 254.709 117.211 254.578 117.339C254.447 117.468 254.271 117.54 254.088 117.54L254.087 117.541ZM253.796 109.08C253.622 109.08 253.453 109.015 253.324 108.897C253.196 108.779 253.116 108.617 253.1 108.443C252.972 107.026 252.801 105.628 252.592 104.288C252.576 104.197 252.579 104.103 252.6 104.013C252.621 103.922 252.659 103.837 252.713 103.762C252.768 103.687 252.836 103.623 252.915 103.574C252.994 103.526 253.082 103.493 253.174 103.479C253.265 103.465 253.359 103.469 253.449 103.491C253.539 103.513 253.624 103.553 253.698 103.608C253.773 103.663 253.835 103.732 253.883 103.812C253.93 103.892 253.962 103.98 253.975 104.072C254.189 105.441 254.364 106.87 254.494 108.317C254.502 108.409 254.493 108.501 254.465 108.589C254.438 108.677 254.393 108.758 254.334 108.829C254.275 108.899 254.203 108.958 254.122 109C254.04 109.043 253.951 109.069 253.86 109.077C253.839 109.079 253.818 109.08 253.797 109.08L253.796 109.08ZM252.476 100.727C252.318 100.727 252.165 100.673 252.041 100.575C251.918 100.477 251.831 100.34 251.795 100.187C251.472 98.8084 251.095 97.4565 250.673 96.1709C250.642 96.083 250.629 95.9898 250.634 95.8967C250.64 95.8037 250.664 95.7127 250.705 95.6291C250.746 95.5455 250.804 95.471 250.874 95.4099C250.944 95.3488 251.026 95.3023 251.115 95.2733C251.203 95.2443 251.297 95.2332 251.39 95.2408C251.483 95.2483 251.573 95.2744 251.656 95.3174C251.739 95.3603 251.812 95.4194 251.871 95.4911C251.931 95.5628 251.976 95.6456 252.003 95.7348C252.437 97.0595 252.825 98.4497 253.158 99.867C253.182 99.9698 253.182 100.077 253.159 100.18C253.136 100.283 253.09 100.379 253.025 100.462C252.959 100.545 252.876 100.611 252.78 100.657C252.685 100.703 252.581 100.727 252.476 100.727H252.476ZM249.83 92.702C249.694 92.702 249.561 92.6626 249.447 92.5883C249.333 92.5141 249.244 92.4083 249.189 92.2839C248.632 91.0159 248.006 89.7791 247.314 88.5793C247.225 88.4188 247.203 88.23 247.252 88.0535C247.301 87.8769 247.418 87.7267 247.577 87.6351C247.735 87.5434 247.924 87.5176 248.101 87.5633C248.279 87.609 248.431 87.7224 248.526 87.8793C249.243 89.1233 249.892 90.4056 250.47 91.7203C250.517 91.8268 250.537 91.9434 250.527 92.0594C250.518 92.1755 250.48 92.2873 250.416 92.3849C250.352 92.4824 250.266 92.5626 250.163 92.618C250.061 92.6735 249.946 92.7026 249.83 92.7027V92.702ZM245.593 85.3987C245.484 85.3989 245.377 85.3736 245.279 85.325C245.182 85.2764 245.097 85.2058 245.032 85.1187C244.203 84.0127 243.307 82.959 242.349 81.9636C242.22 81.8299 242.15 81.6505 242.153 81.4649C242.156 81.2793 242.233 81.1026 242.367 80.9738C242.501 80.8449 242.68 80.7744 242.866 80.7779C243.051 80.7813 243.228 80.8583 243.357 80.992C244.356 82.0291 245.289 83.127 246.153 84.2794C246.231 84.3834 246.278 84.5071 246.29 84.6366C246.301 84.766 246.277 84.8962 246.219 85.0125C246.16 85.1288 246.071 85.2265 245.961 85.2949C245.85 85.3632 245.723 85.3994 245.593 85.3994L245.593 85.3987ZM239.733 79.3211C239.573 79.3211 239.418 79.2662 239.293 79.1655C238.216 78.2967 237.089 77.4926 235.916 76.7575C235.759 76.6588 235.647 76.5017 235.606 76.3207C235.565 76.1398 235.597 75.9497 235.695 75.7925C235.794 75.6352 235.951 75.5236 236.132 75.4822C236.313 75.4408 236.503 75.473 236.661 75.5717C237.88 76.3363 239.053 77.1727 240.173 78.0763C240.286 78.1673 240.368 78.291 240.407 78.4303C240.446 78.5696 240.442 78.7178 240.393 78.8543C240.345 78.9907 240.255 79.1089 240.137 79.1925C240.019 79.276 239.878 79.3208 239.733 79.3208V79.3211ZM162.176 77.912C162.009 77.912 161.849 77.853 161.722 77.7454C161.595 77.6378 161.511 77.4886 161.484 77.3246C161.458 77.1605 161.49 76.9923 161.576 76.8501C161.662 76.7078 161.796 76.6008 161.953 76.5481C163.274 76.1053 164.638 75.6671 166.006 75.2461C166.095 75.2175 166.188 75.2067 166.28 75.2144C166.373 75.2221 166.463 75.2481 166.545 75.2908C166.627 75.3336 166.7 75.3924 166.76 75.4636C166.819 75.5349 166.864 75.6172 166.891 75.7059C166.918 75.7946 166.928 75.8878 166.919 75.9802C166.91 76.0725 166.882 76.1622 166.838 76.2439C166.794 76.3256 166.735 76.3977 166.663 76.4561C166.59 76.5145 166.507 76.5579 166.418 76.5839C165.06 77.0022 163.708 77.4369 162.398 77.876C162.326 77.9 162.251 77.9121 162.176 77.912ZM170.278 75.4143C170.109 75.4144 169.946 75.3532 169.818 75.2422C169.691 75.1311 169.608 74.9777 169.584 74.8102C169.561 74.6427 169.599 74.4725 169.692 74.331C169.785 74.1895 169.925 74.0863 170.088 74.0405C171.452 73.6554 172.835 73.2826 174.197 72.9324C174.376 72.8884 174.566 72.9168 174.724 73.0115C174.882 73.1061 174.997 73.2594 175.043 73.438C175.088 73.6166 175.062 73.8061 174.969 73.9653C174.876 74.1245 174.724 74.2406 174.546 74.2883C173.194 74.6357 171.822 75.0057 170.469 75.3879C170.407 75.4054 170.343 75.4143 170.278 75.4143H170.278ZM232.583 74.8185C232.478 74.8184 232.374 74.7945 232.279 74.7485C231.058 74.1581 229.768 73.6125 228.443 73.1266C228.27 73.0618 228.13 72.9312 228.052 72.7632C227.975 72.5952 227.968 72.4035 228.031 72.23C228.095 72.0564 228.225 71.9151 228.392 71.8368C228.56 71.7586 228.751 71.7498 228.925 71.8123C230.293 72.3139 231.626 72.8778 232.888 73.4881C233.031 73.5572 233.146 73.6726 233.215 73.8155C233.283 73.9584 233.301 74.1203 233.266 74.2747C233.23 74.4292 233.143 74.567 233.019 74.6657C232.895 74.7644 232.742 74.8181 232.583 74.8181L232.583 74.8185ZM178.489 73.3065C178.317 73.3065 178.151 73.2432 178.023 73.1287C177.895 73.0141 177.813 72.8563 177.794 72.6854C177.774 72.5145 177.819 72.3425 177.918 72.2021C178.017 72.0617 178.165 71.9628 178.332 71.9243C179.722 71.6037 181.121 71.2996 182.492 71.0206C182.674 70.9836 182.864 71.0203 183.018 71.1228C183.173 71.2253 183.281 71.3851 183.318 71.567C183.355 71.7489 183.318 71.9381 183.216 72.093C183.113 72.2478 182.954 72.3556 182.772 72.3926C181.412 72.6694 180.025 72.9709 178.647 73.2886C178.595 73.3004 178.542 73.3062 178.489 73.3059L178.489 73.3065ZM224.647 71.8904C224.585 71.8904 224.524 71.8821 224.464 71.8659C223.154 71.5114 221.782 71.197 220.387 70.9314C220.296 70.9152 220.208 70.8811 220.13 70.831C220.053 70.7809 219.985 70.7158 219.933 70.6395C219.88 70.5632 219.843 70.4773 219.824 70.3866C219.805 70.2959 219.804 70.2024 219.821 70.1113C219.839 70.0203 219.874 69.9336 219.925 69.8563C219.976 69.779 220.042 69.7126 220.119 69.661C220.196 69.6093 220.282 69.5735 220.373 69.5555C220.464 69.5375 220.558 69.5377 220.648 69.5562C222.079 69.8284 223.486 70.1508 224.83 70.5145C224.994 70.5586 225.136 70.6608 225.23 70.8021C225.324 70.9433 225.364 71.1139 225.342 71.2822C225.32 71.4505 225.237 71.6049 225.109 71.7168C224.982 71.8287 224.818 71.8904 224.648 71.8904H224.647ZM186.795 71.6183C186.62 71.6182 186.451 71.5524 186.322 71.4339C186.193 71.3155 186.113 71.1529 186.098 70.9783C186.083 70.8038 186.134 70.6299 186.241 70.4911C186.348 70.3523 186.503 70.2586 186.676 70.2286C188.087 69.9821 189.502 69.7564 190.882 69.5577C191.066 69.5313 191.253 69.579 191.401 69.6902C191.55 69.8015 191.648 69.9673 191.675 70.1511C191.701 70.3348 191.654 70.5216 191.542 70.6703C191.431 70.8189 191.265 70.9173 191.082 70.9437C189.715 71.1404 188.314 71.3637 186.917 71.608C186.877 71.6146 186.837 71.6179 186.796 71.6177L186.795 71.6183ZM195.182 70.4155C195.003 70.4154 194.831 70.3467 194.701 70.2236C194.571 70.1005 194.494 69.9323 194.484 69.7536C194.474 69.5749 194.533 69.3992 194.649 69.2627C194.765 69.1263 194.928 69.0393 195.106 69.0197C196.537 68.8615 197.965 68.7295 199.35 68.6277C199.535 68.614 199.718 68.6745 199.859 68.7957C200 68.917 200.086 69.0891 200.1 69.2742C200.114 69.4594 200.053 69.6424 199.932 69.783C199.811 69.9236 199.639 70.0103 199.453 70.0239C198.085 70.125 196.674 70.2554 195.26 70.4116C195.234 70.4141 195.209 70.4153 195.183 70.415L195.182 70.4155ZM216.331 70.2941C216.303 70.2941 216.274 70.2923 216.246 70.289C214.894 70.1239 213.488 69.995 212.066 69.9048C211.974 69.8993 211.884 69.8758 211.801 69.8354C211.718 69.7951 211.644 69.7388 211.583 69.6698C211.522 69.6008 211.475 69.5204 211.445 69.4332C211.415 69.346 211.403 69.2538 211.408 69.1619C211.414 69.0699 211.438 68.98 211.479 68.8973C211.52 68.8146 211.576 68.7407 211.645 68.6799C211.715 68.6191 211.795 68.5726 211.882 68.5431C211.97 68.5135 212.062 68.5014 212.154 68.5076C213.603 68.5992 215.036 68.7316 216.415 68.8996C216.593 68.921 216.755 69.0091 216.869 69.1461C216.983 69.2831 217.041 69.4586 217.03 69.6366C217.02 69.8147 216.941 69.982 216.811 70.1042C216.681 70.2265 216.51 70.2946 216.331 70.2946V70.2941ZM203.633 69.7969C203.448 69.7999 203.268 69.7291 203.135 69.5999C203.002 69.4708 202.925 69.294 202.922 69.1083C202.919 68.9227 202.99 68.7434 203.119 68.61C203.248 68.4766 203.425 68.3999 203.61 68.3969C204.685 68.361 205.758 68.3427 206.8 68.3427C207.167 68.3397 207.521 68.3448 207.882 68.3491C208.067 68.3502 208.245 68.425 208.375 68.5571C208.506 68.6891 208.579 68.8676 208.577 69.0532C208.576 69.2389 208.502 69.4165 208.369 69.547C208.237 69.6775 208.059 69.7502 207.873 69.7491H207.865C207.512 69.7449 207.159 69.7428 206.806 69.7428H206.8C205.773 69.7428 204.716 69.7607 203.657 69.7962C203.65 69.7962 203.642 69.7963 203.634 69.7963L203.633 69.7969Z" fill="#948EEE"/>
<path d="M74.3765 214.291C74.2157 214.291 74.0597 214.236 73.9348 214.135C73.81 214.033 73.7237 213.892 73.6907 213.735C73.6577 213.578 73.6798 213.414 73.7535 213.271C73.8271 213.128 73.9477 213.014 74.095 212.95C74.744 212.665 75.4042 212.39 76.0576 212.132C76.1431 212.098 76.2344 212.082 76.3263 212.083C76.4183 212.085 76.509 212.104 76.5933 212.141C76.6777 212.177 76.754 212.23 76.8179 212.296C76.8819 212.362 76.9322 212.44 76.9659 212.526C76.9997 212.611 77.0164 212.702 77.0149 212.794C77.0134 212.886 76.9938 212.977 76.9572 213.061C76.9207 213.146 76.8679 213.222 76.8018 213.286C76.7358 213.35 76.6578 213.4 76.5723 213.434C75.935 213.686 75.2906 213.955 74.6572 214.232C74.5687 214.271 74.4732 214.291 74.3765 214.291Z" fill="#418DF9"/>
<path d="M66.2657 214.999C67.3315 214.73 67.805 212.965 67.3234 211.057C66.8417 209.148 65.5873 207.819 64.5215 208.088C63.4558 208.357 62.9822 210.122 63.4639 212.031C63.9455 213.939 65.2 215.268 66.2657 214.999Z" fill="#A2BDFF"/>
<path d="M70.3063 225.152C71.3334 224.761 71.5975 222.952 70.8963 221.113C70.195 219.274 68.7939 218.101 67.7669 218.492C66.7398 218.884 66.4757 220.692 67.1769 222.531C67.8782 224.37 69.2793 225.544 70.3063 225.152Z" fill="#A2BDFF"/>
<path d="M66.7384 218.349C67.5513 218.349 68.2103 217.69 68.2103 216.877C68.2103 216.064 67.5513 215.405 66.7384 215.405C65.9256 215.405 65.2666 216.064 65.2666 216.877C65.2666 217.69 65.9256 218.349 66.7384 218.349Z" fill="#0E84E5"/>
</svg>
