<svg width="250" height="247" viewBox="0 0 250 247" fill="none" xmlns="http://www.w3.org/2000/svg">
<path d="M62.5459 40.1282C62.5459 40.1282 100.183 68.6888 157.401 15.285C208.217 -32.1416 249.708 42.6873 249.998 78.522C250.374 124.943 199.182 162.085 224.026 192.574C248.869 223.063 174.758 273.412 134.817 229.839C85.1304 175.636 71.6699 219.676 43.349 219.676C23.0227 219.676 -18.709 169.17 9.47199 131.596C33.1859 99.978 20.2528 89.4837 13.989 78.522C4.95519 62.7128 26.4106 19.802 62.5459 40.1282Z" fill="#E6E4FB"/>
<path d="M210.909 170.883L72.7257 213.308C70.4361 214.01 67.9614 213.774 65.8459 212.652C63.7303 211.529 62.1472 209.613 61.4446 207.323L45.2853 154.701L31.8701 111L31.6104 110.164L33.4508 108.041L93.5033 38.7979C93.7783 38.4773 94.1386 38.2413 94.5424 38.1174C94.9462 37.9934 95.3768 37.9865 95.7843 38.0975L184.384 61.7325L187.06 62.4438L187.885 65.1087L216.894 159.591C217.595 161.882 217.359 164.358 216.237 166.475C215.115 168.591 213.199 170.177 210.909 170.883Z" fill="#948EEE"/>
<path d="M187.885 65.1087L135.511 126.81V123.422L184.384 61.7324L187.061 62.4437L187.885 65.1087Z" fill="#575AE5"/>
<path d="M211.071 170.829C210.968 170.863 210.857 170.863 210.755 170.829L126.175 139.425C126.107 139.399 126.046 139.358 125.996 139.304C125.947 139.25 125.911 139.185 125.891 139.115C125.872 139.045 125.869 138.971 125.883 138.899C125.897 138.827 125.927 138.76 125.972 138.702L140.11 121.064L186.521 63.1242C186.572 63.0583 186.64 63.0077 186.718 62.978C186.795 62.9483 186.88 62.9407 186.961 62.9558C187.043 62.971 187.119 63.0085 187.181 63.064C187.243 63.1196 187.288 63.1912 187.312 63.2709L216.694 158.984L216.887 159.593C217.585 161.855 217.366 164.3 216.278 166.402C215.19 168.503 213.32 170.093 211.071 170.829Z" fill="#D1CEF8"/>
<path d="M120.775 135.877L120.007 137.481L32.4461 110.424C32.366 110.399 32.2807 110.397 32.1994 110.417C32.1181 110.437 32.0438 110.479 31.9845 110.538C31.9252 110.597 31.8833 110.672 31.8631 110.753C31.843 110.834 31.8454 110.92 31.8701 111L31.6104 110.164L33.4508 108.041L120.775 135.877Z" fill="#575AE5"/>
<path d="M125.212 139.716L72.8274 213.173C72.7672 213.264 72.6742 213.329 72.5677 213.353C70.2933 214.007 67.8531 213.741 65.7727 212.613C63.6922 211.486 62.138 209.586 61.4447 207.323L45.2853 154.701L31.8701 111C31.8454 110.92 31.843 110.834 31.8631 110.753C31.8833 110.672 31.9253 110.597 31.9845 110.538C32.0438 110.479 32.1181 110.437 32.1994 110.417C32.2807 110.397 32.366 110.399 32.4461 110.424L120.007 137.48L124.975 139.016C125.043 139.038 125.106 139.075 125.157 139.125C125.209 139.176 125.248 139.237 125.271 139.306C125.294 139.374 125.301 139.447 125.291 139.518C125.281 139.589 125.254 139.657 125.212 139.716Z" fill="#D1CEF8"/>
<path d="M210.907 170.884L72.7318 213.309C70.6398 213.944 68.3884 213.802 66.3933 212.907C64.3982 212.013 62.7941 210.426 61.8771 208.441C61.7224 208.102 61.6539 207.73 61.6774 207.359C61.7009 206.987 61.8158 206.626 62.0119 206.31L117.08 116.609C117.368 116.14 117.816 115.793 118.342 115.631C118.867 115.47 119.434 115.506 119.935 115.732L215.853 159.075C216.193 159.227 216.49 159.461 216.718 159.756C216.946 160.051 217.098 160.397 217.16 160.764C217.515 162.922 217.077 165.135 215.928 166.995C214.779 168.855 212.995 170.236 210.907 170.884Z" fill="#ABA6F2"/>
<path d="M183.631 30.0565C183.549 30.0565 183.469 30.0355 183.397 29.9957C183.326 29.9558 183.266 29.8984 183.223 29.8288C183.179 29.7592 183.155 29.6797 183.151 29.598C183.147 29.5162 183.164 29.4348 183.2 29.3614C183.613 28.5282 183.833 28.0713 183.834 28.0701C183.86 28.0109 183.898 27.9575 183.945 27.9132C183.992 27.8688 184.047 27.8344 184.108 27.812C184.169 27.7896 184.233 27.7797 184.298 27.7828C184.362 27.7859 184.426 27.802 184.484 27.8301C184.542 27.8582 184.594 27.8978 184.637 27.9464C184.679 27.9951 184.712 28.0518 184.732 28.1132C184.752 28.1747 184.76 28.2396 184.754 28.304C184.749 28.3685 184.731 28.4311 184.7 28.4883C184.7 28.4883 184.478 28.9484 184.062 29.7887C184.022 29.869 183.961 29.9367 183.885 29.984C183.809 30.0313 183.721 30.0564 183.631 30.0565Z" fill="white"/>
<path d="M135.02 98.6342C134.928 98.6341 134.838 98.608 134.761 98.5587C134.684 98.5095 134.622 98.4392 134.584 98.3561C134.545 98.2731 134.531 98.1807 134.543 98.0899C134.555 97.9991 134.592 97.9135 134.651 97.8434C135.273 97.102 135.864 96.3666 136.408 95.6575C136.486 95.5561 136.601 95.4898 136.727 95.4731C136.854 95.4564 136.982 95.4907 137.083 95.5684C137.184 95.6461 137.251 95.7609 137.267 95.8875C137.284 96.0141 137.25 96.1421 137.172 96.2434C136.62 96.9636 136.02 97.7101 135.389 98.4622C135.344 98.5161 135.287 98.5595 135.223 98.5892C135.16 98.6189 135.09 98.6342 135.02 98.6342ZM138.447 94.144C138.36 94.1439 138.274 94.12 138.199 94.0748C138.124 94.0296 138.063 93.9649 138.022 93.8876C137.981 93.8102 137.962 93.7232 137.967 93.6359C137.972 93.5485 138 93.4642 138.05 93.3918C138.6 92.5819 139.099 91.7877 139.531 91.0309C139.562 90.976 139.604 90.9278 139.654 90.8891C139.704 90.8504 139.761 90.8219 139.822 90.8052C139.883 90.7886 139.947 90.7841 140.009 90.7921C140.072 90.8001 140.133 90.8203 140.188 90.8516C140.243 90.883 140.291 90.9249 140.329 90.9748C140.368 91.0248 140.397 91.0819 140.413 91.1429C140.43 91.2039 140.434 91.2676 140.426 91.3303C140.418 91.393 140.398 91.4536 140.367 91.5085C139.922 92.287 139.411 93.1026 138.846 93.9333C138.802 93.9982 138.742 94.0514 138.673 94.0881C138.603 94.1248 138.526 94.144 138.448 94.144H138.447ZM138.348 89.5555H138.34C137.367 89.56 136.405 89.3496 135.523 88.9394C135.466 88.9126 135.414 88.8749 135.372 88.8282C135.329 88.7816 135.296 88.727 135.274 88.6676C135.253 88.6082 135.243 88.5451 135.246 88.4819C135.248 88.4188 135.264 88.3568 135.29 88.2995C135.317 88.2422 135.355 88.1908 135.401 88.1481C135.448 88.1054 135.503 88.0723 135.562 88.0507C135.622 88.0291 135.685 88.0194 135.748 88.0222C135.811 88.025 135.873 88.0401 135.93 88.0669C136.685 88.4172 137.509 88.5964 138.341 88.5918C138.38 88.5918 138.421 88.5918 138.46 88.5918H138.469C138.532 88.5912 138.595 88.6031 138.654 88.6268C138.712 88.6504 138.766 88.6854 138.811 88.7297C138.856 88.774 138.892 88.8267 138.917 88.8849C138.941 88.9431 138.955 89.0055 138.955 89.0688C138.956 89.132 138.944 89.1947 138.92 89.2533C138.896 89.312 138.862 89.3653 138.817 89.4105C138.773 89.4556 138.72 89.4915 138.662 89.5162C138.604 89.541 138.541 89.554 138.478 89.5546C138.435 89.5552 138.392 89.5555 138.349 89.5555H138.348ZM141.215 89.2282C141.105 89.1975 141.004 89.1378 140.924 89.0554C140.844 88.9729 140.788 88.8706 140.76 88.759C140.733 88.6474 140.736 88.5306 140.769 88.4206C140.802 88.3105 140.864 88.2112 140.948 88.1329C141.231 87.4298 141.457 86.7046 141.622 85.9646C141.634 85.9022 141.659 85.843 141.695 85.7903C141.731 85.7377 141.777 85.6926 141.83 85.6578C141.883 85.623 141.943 85.599 142.005 85.5874C142.068 85.5758 142.132 85.5767 142.194 85.5901C142.257 85.6035 142.316 85.6291 142.368 85.6654C142.42 85.7017 142.465 85.748 142.499 85.8017C142.533 85.8553 142.557 85.9152 142.568 85.9779C142.578 86.0406 142.577 86.1049 142.563 86.1669C142.455 86.6593 142.32 87.1453 142.158 87.6227C142.598 87.4162 143.048 87.1771 143.504 86.9069C143.614 86.8469 143.742 86.8318 143.863 86.8649C143.983 86.8979 144.086 86.9764 144.15 87.0839C144.213 87.1913 144.233 87.3193 144.204 87.4408C144.175 87.5623 144.1 87.6677 143.994 87.7349C143.257 88.1767 142.484 88.5573 141.684 88.8729L141.658 88.9346C141.621 89.0213 141.559 89.0953 141.481 89.1474C141.402 89.1994 141.31 89.2273 141.216 89.2274L141.215 89.2282ZM133.413 87.3797C133.296 87.3798 133.183 87.3374 133.095 87.2603C132.327 86.6174 131.679 85.8437 131.18 84.9748C131.147 84.919 131.126 84.8571 131.118 84.7929C131.109 84.7286 131.114 84.6634 131.131 84.601C131.149 84.5386 131.179 84.4804 131.219 84.4298C131.26 84.3792 131.31 84.3373 131.367 84.3066C131.424 84.2759 131.487 84.2571 131.551 84.2512C131.616 84.2453 131.681 84.2525 131.742 84.2723C131.804 84.2921 131.861 84.3242 131.91 84.3666C131.959 84.409 131.999 84.4609 132.027 84.519C132.472 85.2864 133.048 85.9693 133.73 86.5365C133.803 86.601 133.855 86.6865 133.879 86.7815C133.903 86.8764 133.897 86.9764 133.863 87.068C133.828 87.1596 133.766 87.2385 133.686 87.2942C133.605 87.3499 133.51 87.3797 133.412 87.3797H133.413ZM146.085 86.213C145.984 86.2131 145.886 86.1817 145.804 86.1231C145.722 86.0645 145.661 85.9817 145.628 85.8864C145.596 85.791 145.594 85.6879 145.623 85.5916C145.653 85.4953 145.711 85.4106 145.791 85.3493C146.482 84.82 147.202 84.2181 147.931 83.5601C147.978 83.5178 148.033 83.4851 148.093 83.4639C148.152 83.4427 148.215 83.4335 148.278 83.4367C148.342 83.44 148.403 83.4556 148.461 83.4828C148.518 83.5099 148.569 83.548 148.611 83.595C148.654 83.6419 148.686 83.6967 148.707 83.7563C148.729 83.8159 148.738 83.879 148.735 83.9421C148.731 84.0053 148.716 84.0672 148.689 84.1243C148.661 84.1813 148.623 84.2325 148.576 84.2749C147.828 84.95 147.088 85.5687 146.377 86.1136C146.293 86.1775 146.19 86.2119 146.085 86.2114L146.085 86.213ZM142.242 83.7407C142.126 83.7406 142.014 83.6989 141.927 83.6232C141.84 83.5476 141.782 83.443 141.766 83.3287C141.662 82.484 141.299 81.6921 140.728 81.0611C140.642 80.9674 140.596 80.8434 140.601 80.7161C140.606 80.5889 140.662 80.4689 140.755 80.3823C140.848 80.2957 140.972 80.2497 141.099 80.2542C141.227 80.2587 141.347 80.3134 141.434 80.4064C142.139 81.1797 142.587 82.1518 142.719 83.1898C142.728 83.2524 142.724 83.3161 142.709 83.3774C142.693 83.4387 142.666 83.4964 142.628 83.5471C142.59 83.5977 142.543 83.6405 142.489 83.6729C142.434 83.7052 142.374 83.7266 142.312 83.7357C142.289 83.739 142.265 83.7407 142.242 83.7407ZM131.3 82.5072C131.223 82.5072 131.146 82.4885 131.078 82.4527C131.009 82.4168 130.95 82.3649 130.905 82.3013C130.861 82.2377 130.833 82.1644 130.823 82.0875C130.813 82.0106 130.822 81.9324 130.848 81.8597C131.181 80.9546 131.907 80.1663 132.95 79.5809C133.062 79.5184 133.193 79.5027 133.316 79.5372C133.439 79.5717 133.543 79.6536 133.606 79.7649C133.668 79.8763 133.684 80.0079 133.65 80.1308C133.615 80.2538 133.533 80.358 133.422 80.4205C132.582 80.8921 132.005 81.5044 131.752 82.192C131.718 82.2845 131.657 82.3643 131.576 82.4207C131.495 82.477 131.399 82.5072 131.3 82.5072ZM150.296 82.4383C150.201 82.4383 150.108 82.4102 150.029 82.3576C149.95 82.305 149.888 82.2302 149.852 82.1427C149.815 82.0551 149.805 81.9587 149.823 81.8655C149.841 81.7723 149.886 81.6866 149.953 81.619C150.58 80.9835 151.228 80.2948 151.879 79.574C151.964 79.4792 152.084 79.4223 152.211 79.4158C152.339 79.4092 152.464 79.4536 152.558 79.5392C152.653 79.6247 152.71 79.7444 152.717 79.8719C152.723 79.9994 152.679 80.1243 152.593 80.2191C151.933 80.9508 151.276 81.6486 150.638 82.2948C150.594 82.3403 150.54 82.3764 150.482 82.4011C150.423 82.4257 150.36 82.4384 150.296 82.4383ZM138.669 79.8159C138.626 79.8158 138.584 79.8101 138.543 79.7989C137.688 79.5775 136.798 79.521 135.922 79.6324C135.86 79.6399 135.796 79.6351 135.735 79.6181C135.674 79.6011 135.617 79.5722 135.567 79.5332C135.518 79.4942 135.476 79.4458 135.445 79.3907C135.414 79.3356 135.394 79.275 135.387 79.2122C135.379 79.1494 135.384 79.0858 135.401 79.0249C135.418 78.964 135.447 78.9071 135.486 78.8573C135.525 78.8076 135.573 78.766 135.628 78.735C135.683 78.704 135.744 78.6841 135.807 78.6765C136.806 78.5501 137.82 78.6155 138.795 78.8691C138.908 78.8994 139.006 78.9698 139.07 79.0669C139.135 79.1641 139.162 79.2815 139.147 79.3973C139.132 79.5131 139.075 79.6193 138.987 79.6962C138.899 79.7731 138.786 79.8154 138.669 79.8153V79.8159ZM154.093 78.2429C154.001 78.2428 153.912 78.2165 153.834 78.1672C153.757 78.1179 153.696 78.0476 153.657 77.9645C153.618 77.8814 153.604 77.789 153.616 77.6982C153.628 77.6073 153.666 77.5218 153.725 77.4517C154.307 76.7585 154.907 76.0248 155.506 75.2696C155.545 75.2191 155.594 75.1768 155.649 75.1452C155.705 75.1136 155.766 75.0933 155.829 75.0855C155.893 75.0778 155.957 75.0827 156.018 75.1C156.08 75.1173 156.137 75.1466 156.187 75.1863C156.237 75.226 156.279 75.2752 156.309 75.3311C156.34 75.3869 156.359 75.4484 156.366 75.5118C156.373 75.5753 156.367 75.6394 156.349 75.7006C156.331 75.7617 156.301 75.8187 156.26 75.8681C155.655 76.6304 155.05 77.3717 154.462 78.0713C154.417 78.125 154.36 78.1682 154.297 78.1979C154.233 78.2275 154.164 78.2429 154.094 78.2429H154.093ZM157.616 73.812C157.526 73.8119 157.438 73.7869 157.362 73.7397C157.286 73.6925 157.225 73.6251 157.185 73.545C157.145 73.4648 157.128 73.3751 157.137 73.286C157.145 73.1969 157.178 73.1118 157.232 73.0404C157.782 72.3123 158.346 71.5492 158.909 70.7723C158.984 70.6689 159.097 70.5994 159.223 70.5793C159.349 70.5591 159.478 70.5898 159.581 70.6647C159.685 70.7396 159.754 70.8525 159.774 70.9786C159.794 71.1047 159.764 71.2336 159.689 71.337C159.122 72.1194 158.554 72.8877 158 73.6207C157.955 73.6801 157.897 73.7282 157.831 73.7614C157.764 73.7946 157.691 73.8119 157.616 73.812H157.616ZM160.938 69.2291C160.85 69.229 160.764 69.2048 160.689 69.1592C160.614 69.1135 160.553 69.0481 160.512 68.9701C160.471 68.8921 160.453 68.8044 160.458 68.7166C160.464 68.6289 160.494 68.5443 160.544 68.4722C161.069 67.7212 161.606 66.9373 162.142 66.1446C162.214 66.0387 162.324 65.9657 162.45 65.9414C162.575 65.9171 162.705 65.9437 162.811 66.0152C162.917 66.0867 162.99 66.1973 163.014 66.3227C163.038 66.448 163.012 66.5779 162.94 66.6837C162.401 67.4805 161.862 68.2679 161.334 69.0237C161.29 69.0871 161.23 69.1389 161.162 69.1747C161.093 69.2104 161.017 69.229 160.939 69.2289L160.938 69.2291ZM164.108 64.5387C164.021 64.5386 163.936 64.5151 163.862 64.4706C163.787 64.4261 163.726 64.3623 163.685 64.2859C163.644 64.2095 163.624 64.1234 163.628 64.0367C163.631 63.9499 163.658 63.8658 163.706 63.7933C164.215 63.0165 164.732 62.2168 165.243 61.4162C165.312 61.3085 165.42 61.2326 165.545 61.2051C165.67 61.1775 165.8 61.2006 165.908 61.2693C166.016 61.338 166.091 61.4467 166.119 61.5713C166.147 61.696 166.123 61.8265 166.055 61.9341C165.542 62.7381 165.022 63.5412 164.511 64.3218C164.467 64.3884 164.408 64.4431 164.337 64.4809C164.267 64.5187 164.189 64.5385 164.109 64.5385L164.108 64.5387ZM167.157 59.7633C167.071 59.7632 166.987 59.7402 166.913 59.6966C166.839 59.653 166.778 59.5905 166.737 59.5154C166.695 59.4404 166.674 59.3556 166.676 59.2698C166.679 59.184 166.704 59.1004 166.749 59.0275C167.237 58.244 167.735 57.4343 168.23 56.6205C168.296 56.5115 168.403 56.4332 168.527 56.403C168.651 56.3728 168.782 56.3932 168.891 56.4596C169.001 56.526 169.079 56.633 169.109 56.757C169.139 56.8811 169.119 57.0121 169.052 57.1212C168.556 57.9376 168.056 58.7502 167.566 59.5362C167.523 59.6054 167.463 59.6624 167.391 59.7019C167.32 59.7414 167.239 59.7621 167.158 59.7621L167.157 59.7633ZM170.1 54.927C170.015 54.9269 169.932 54.9043 169.858 54.8615C169.785 54.8187 169.724 54.7572 169.682 54.6833C169.64 54.6093 169.619 54.5256 169.62 54.4406C169.62 54.3556 169.644 54.2724 169.687 54.1993C170.174 53.3827 170.652 52.571 171.123 51.7643C171.154 51.7088 171.197 51.6601 171.247 51.621C171.297 51.5819 171.355 51.5532 171.416 51.5366C171.478 51.52 171.542 51.5157 171.605 51.5242C171.669 51.5326 171.73 51.5534 171.785 51.5856C171.84 51.6177 171.888 51.6605 171.926 51.7114C171.965 51.7623 171.993 51.8203 172.008 51.882C172.024 51.9438 172.028 52.0081 172.018 52.0712C172.009 52.1343 171.987 52.1949 171.954 52.2495C171.482 53.0583 171.002 53.8724 170.515 54.6919C170.472 54.7635 170.411 54.8227 170.339 54.8639C170.266 54.905 170.184 54.9266 170.101 54.9266L170.1 54.927ZM172.955 50.0374C172.871 50.0374 172.788 50.0151 172.715 49.973C172.642 49.9308 172.581 49.8702 172.539 49.7972C172.497 49.7243 172.474 49.6414 172.474 49.5571C172.474 49.4728 172.496 49.3899 172.538 49.3167C173.014 48.486 173.479 47.6663 173.934 46.8576C173.965 46.8022 174.006 46.7534 174.056 46.7141C174.106 46.6748 174.163 46.6457 174.224 46.6285C174.285 46.6113 174.348 46.6063 174.411 46.6138C174.474 46.6213 174.535 46.6411 174.59 46.6722C174.646 46.7033 174.694 46.745 174.733 46.7948C174.772 46.8447 174.801 46.9019 174.818 46.9629C174.835 47.024 174.84 47.0878 174.832 47.1507C174.824 47.2136 174.804 47.2744 174.773 47.3295C174.317 48.1394 173.851 48.961 173.373 49.7942C173.331 49.8676 173.27 49.9286 173.197 49.971C173.124 50.0134 173.041 50.0357 172.956 50.0357L172.955 50.0374ZM175.732 45.1018C175.648 45.1017 175.566 45.0798 175.493 45.0382C175.421 44.9967 175.36 44.9369 175.318 44.8647C175.275 44.7926 175.252 44.7107 175.251 44.627C175.25 44.5433 175.271 44.4607 175.311 44.3875C175.779 43.5402 176.232 42.7133 176.671 41.9068C176.732 41.7946 176.835 41.7112 176.957 41.675C177.079 41.6388 177.211 41.6527 177.323 41.7137C177.436 41.7747 177.519 41.8777 177.555 42.0002C177.591 42.1226 177.577 42.2544 177.516 42.3666C177.077 43.1742 176.623 44.003 176.154 44.8532C176.112 44.9283 176.051 44.9908 175.977 45.0343C175.903 45.0778 175.819 45.1008 175.733 45.1007L175.732 45.1018ZM178.437 40.1246C178.354 40.1245 178.272 40.1028 178.2 40.0618C178.128 40.0207 178.067 39.9616 178.025 39.8903C177.982 39.819 177.959 39.7378 177.957 39.6548C177.955 39.5717 177.974 39.4895 178.013 39.4162C178.478 38.546 178.92 37.7125 179.338 36.9157C179.367 36.8585 179.407 36.8076 179.456 36.7659C179.504 36.7243 179.561 36.6928 179.621 36.6732C179.682 36.6536 179.747 36.6464 179.81 36.6519C179.874 36.6574 179.936 36.6756 179.993 36.7054C180.049 36.7352 180.099 36.7759 180.14 36.8253C180.181 36.8747 180.211 36.9317 180.23 36.993C180.248 37.0543 180.254 37.1186 180.247 37.1822C180.241 37.2459 180.221 37.3075 180.19 37.3636C179.772 38.1604 179.329 38.9958 178.862 39.8699C178.821 39.9466 178.759 40.0106 178.685 40.0553C178.61 40.0999 178.525 40.1235 178.438 40.1235L178.437 40.1246ZM181.073 35.1076C180.99 35.1075 180.909 35.0862 180.837 35.0457C180.765 35.0052 180.705 34.9469 180.662 34.8764C180.619 34.8058 180.595 34.7254 180.592 34.6429C180.589 34.5604 180.608 34.4785 180.646 34.4051C181.125 33.478 181.556 32.6336 181.936 31.8844C181.964 31.8276 182.003 31.7771 182.051 31.7355C182.099 31.694 182.155 31.6624 182.215 31.6425C182.276 31.6226 182.339 31.6148 182.402 31.6195C182.466 31.6243 182.527 31.6415 182.584 31.6701C182.641 31.6988 182.691 31.7384 182.732 31.7866C182.774 31.8348 182.805 31.8907 182.824 31.9511C182.844 32.0114 182.851 32.075 182.846 32.1383C182.841 32.2015 182.824 32.2631 182.795 32.3196C182.414 33.0705 181.982 33.9178 181.501 34.8471C181.461 34.9253 181.399 34.9909 181.324 35.0367C181.249 35.0824 181.162 35.1065 181.074 35.1064L181.073 35.1076Z" fill="white"/>
<path d="M132.234 101.784C132.141 101.784 132.049 101.757 131.971 101.705C131.892 101.654 131.831 101.581 131.793 101.495C131.756 101.409 131.744 101.314 131.76 101.222C131.775 101.13 131.818 101.044 131.881 100.975C132.214 100.616 132.537 100.263 132.85 99.9144C132.892 99.8661 132.943 99.8267 133.001 99.7983C133.058 99.77 133.12 99.7534 133.184 99.7495C133.248 99.7455 133.312 99.7543 133.372 99.7753C133.433 99.7963 133.488 99.8292 133.536 99.8719C133.583 99.9146 133.622 99.9664 133.649 100.024C133.676 100.082 133.692 100.145 133.695 100.208C133.698 100.272 133.688 100.336 133.666 100.396C133.644 100.456 133.61 100.511 133.566 100.558C133.25 100.91 132.923 101.267 132.587 101.63C132.542 101.678 132.488 101.717 132.427 101.744C132.366 101.77 132.301 101.784 132.234 101.784Z" fill="white"/>
<path d="M112.076 70.8004C111.994 70.8004 111.914 70.7795 111.842 70.7396C111.771 70.6998 111.711 70.6424 111.668 70.5728C111.624 70.5033 111.6 70.4238 111.596 70.3421C111.592 70.2603 111.609 70.1789 111.645 70.1055C112.037 69.3126 112.249 68.8265 112.251 68.8217C112.302 68.7052 112.398 68.6138 112.516 68.5673C112.635 68.5209 112.767 68.5233 112.884 68.574C113 68.6247 113.092 68.7196 113.139 68.8379C113.186 68.9562 113.184 69.0883 113.134 69.2053C113.125 69.2257 112.912 69.7156 112.508 70.5322C112.468 70.6127 112.407 70.6805 112.33 70.7279C112.254 70.7753 112.166 70.8005 112.076 70.8004Z" fill="white"/>
<path d="M88.7776 93.9088C88.6841 93.9088 88.5927 93.8816 88.5144 93.8304C88.4362 93.7793 88.3745 93.7065 88.3369 93.6209C88.2993 93.5353 88.2875 93.4406 88.3028 93.3484C88.3182 93.2562 88.3601 93.1704 88.4233 93.1016C89.1098 92.3545 89.7624 91.6178 90.3633 90.9123C90.404 90.8632 90.4541 90.8228 90.5105 90.7933C90.567 90.7638 90.6288 90.7457 90.6922 90.7403C90.7557 90.7348 90.8197 90.742 90.8804 90.7614C90.941 90.7808 90.9973 90.8121 91.0458 90.8534C91.0943 90.8947 91.1341 90.9453 91.1629 91.0021C91.1917 91.0589 91.209 91.1209 91.2137 91.1844C91.2184 91.248 91.2104 91.3118 91.1902 91.3723C91.1701 91.4327 91.1381 91.4885 91.0962 91.5365C90.4875 92.2513 89.8269 92.9971 89.1321 93.753C89.0871 93.8022 89.0323 93.8415 88.9713 93.8683C88.9103 93.8951 88.8443 93.9089 88.7776 93.9088ZM92.5833 89.4198C92.4935 89.4197 92.4054 89.3945 92.3292 89.3471C92.2529 89.2996 92.1915 89.2317 92.1517 89.1511C92.112 89.0706 92.0957 88.9805 92.1045 88.8911C92.1133 88.8017 92.147 88.7166 92.2017 88.6453C92.8317 87.8242 93.3999 87.0278 93.8904 86.2794C93.925 86.2265 93.9697 86.1809 94.022 86.1453C94.0742 86.1097 94.133 86.0847 94.1949 86.0718C94.2568 86.0589 94.3206 86.0584 94.3827 86.0701C94.4448 86.0819 94.504 86.1058 94.5569 86.1404C94.6098 86.1751 94.6553 86.2198 94.6909 86.272C94.7265 86.3243 94.7515 86.383 94.7644 86.4449C94.7773 86.5068 94.7779 86.5706 94.7661 86.6328C94.7544 86.6949 94.7305 86.7541 94.6958 86.807C94.1923 87.5756 93.6102 88.3915 92.9655 89.2314C92.9205 89.29 92.8627 89.3375 92.7964 89.3702C92.7301 89.4028 92.6572 89.4198 92.5833 89.4198ZM95.9111 86.7921C95.7886 86.7918 95.671 86.7448 95.582 86.6607C95.493 86.5767 95.4394 86.4619 95.432 86.3397C95.4246 86.2175 95.4641 86.0971 95.5424 86.003C95.6206 85.9088 95.7318 85.8481 95.8533 85.833C96.7835 85.7131 97.6928 85.4658 98.5556 85.0982C98.6734 85.0488 98.806 85.0483 98.9241 85.0966C99.0423 85.145 99.1365 85.2383 99.1859 85.356C99.2353 85.4738 99.2358 85.6064 99.1875 85.7246C99.1391 85.8428 99.0458 85.9369 98.928 85.9863C97.9836 86.3878 96.9886 86.6578 95.9708 86.7887C95.9509 86.791 95.931 86.7921 95.9111 86.7921ZM92.9842 86.6935C92.9535 86.6935 92.9229 86.6906 92.8927 86.6849C91.8852 86.4855 90.9099 86.1481 89.9944 85.6824C89.8813 85.6246 89.7957 85.5243 89.7562 85.4036C89.7167 85.2828 89.7265 85.1514 89.7835 85.0378C89.8405 84.9243 89.9401 84.8379 90.0606 84.7975C90.181 84.7571 90.3125 84.7659 90.4265 84.8221C91.2629 85.248 92.1539 85.5567 93.0745 85.7394C93.1921 85.762 93.297 85.8276 93.3688 85.9234C93.4406 86.0192 93.4741 86.1383 93.4628 86.2575C93.4516 86.3767 93.3963 86.4874 93.3078 86.568C93.2193 86.6486 93.1039 86.6934 92.9842 86.6935ZM101.315 84.6028C101.212 84.6029 101.112 84.57 101.029 84.5091C100.947 84.4481 100.885 84.3623 100.855 84.2641C100.824 84.1659 100.826 84.0605 100.86 83.9634C100.894 83.8662 100.958 83.7825 101.042 83.7243C101.831 83.1787 102.579 82.5769 103.281 81.9235C103.327 81.8806 103.381 81.8473 103.441 81.8254C103.5 81.8035 103.563 81.7935 103.626 81.796C103.689 81.7985 103.751 81.8134 103.809 81.8399C103.866 81.8664 103.918 81.9039 103.961 81.9503C104.004 81.9967 104.037 82.0512 104.059 82.1105C104.081 82.1698 104.091 82.2328 104.088 82.296C104.086 82.3592 104.071 82.4212 104.045 82.4786C104.018 82.5361 103.981 82.5877 103.934 82.6306C103.198 83.3153 102.414 83.946 101.587 84.5177C101.507 84.5731 101.412 84.6028 101.314 84.6028H101.315ZM95.7647 84.4778C95.683 84.4777 95.6027 84.4569 95.5313 84.4172C95.4599 84.3775 95.3997 84.3203 95.3565 84.251C95.3133 84.1816 95.2885 84.1024 95.2843 84.0208C95.2802 83.9393 95.2969 83.858 95.3328 83.7846C95.7614 82.9483 96.0796 82.0599 96.2794 81.1418C96.3037 81.0164 96.3768 80.9058 96.4826 80.8344C96.5884 80.7629 96.7183 80.7364 96.8436 80.7607C96.969 80.785 97.0795 80.8581 97.151 80.9639C97.2225 81.0697 97.249 81.1995 97.2247 81.3249C97.0088 82.3264 96.6634 83.2956 96.1974 84.208C96.1577 84.2891 96.096 84.3574 96.0193 84.4051C95.9426 84.4529 95.8541 84.478 95.7638 84.4778H95.7647ZM87.7917 84.0769C87.6643 84.0769 87.5421 84.0264 87.4519 83.9365C86.6287 83.1164 86.2114 82.242 86.2114 81.3351C86.2115 81.1908 86.2222 81.0468 86.2436 80.9042C86.2625 80.7779 86.3308 80.6643 86.4335 80.5884C86.5361 80.5125 86.6648 80.4805 86.791 80.4994C86.9173 80.5183 87.0309 80.5866 87.1068 80.6893C87.1827 80.792 87.2147 80.9206 87.1958 81.0468C87.1815 81.1424 87.1743 81.239 87.1742 81.3357C87.1742 81.9765 87.4964 82.6221 88.1316 83.2551C88.1991 83.3223 88.2451 83.4081 88.2638 83.5015C88.2825 83.595 88.2731 83.6919 88.2367 83.7799C88.2003 83.868 88.1386 83.9433 88.0594 83.9963C87.9802 84.0492 87.887 84.0775 87.7917 84.0775V84.0769ZM105.655 80.643C105.563 80.643 105.472 80.6163 105.395 80.5662C105.317 80.5161 105.255 80.4446 105.217 80.3604C105.179 80.2762 105.166 80.1828 105.179 80.0914C105.193 79.9999 105.232 79.9143 105.293 79.8447C105.903 79.1482 106.515 78.3859 107.113 77.5789C107.19 77.4773 107.303 77.41 107.429 77.3918C107.555 77.3735 107.683 77.4057 107.785 77.4814C107.887 77.5571 107.955 77.6701 107.974 77.7957C107.993 77.9214 107.962 78.0495 107.887 78.1521C107.273 78.9801 106.644 79.7629 106.018 80.4788C105.973 80.5306 105.917 80.5721 105.854 80.6005C105.791 80.6288 105.723 80.6433 105.654 80.643H105.655ZM88.3474 79.093C88.2464 79.093 88.1479 79.0612 88.066 79.0021C87.984 78.943 87.9227 78.8596 87.8908 78.7638C87.8588 78.6679 87.8578 78.5645 87.888 78.468C87.9181 78.3716 87.9778 78.2871 88.0586 78.2265C88.8998 77.61 89.8444 77.1491 90.848 76.8655C90.9695 76.8333 91.0988 76.8498 91.2082 76.9117C91.3176 76.9735 91.3986 77.0757 91.4336 77.1964C91.4687 77.3171 91.4552 77.4468 91.3959 77.5577C91.3367 77.6685 91.2364 77.7518 91.1166 77.7897C90.2256 78.0428 89.3863 78.451 88.6372 78.9957C88.5535 79.0588 88.4514 79.0927 88.3465 79.0922L88.3474 79.093ZM96.3963 78.8677C96.3159 78.8677 96.2367 78.8475 96.1661 78.8091C96.0955 78.7707 96.0356 78.7151 95.9919 78.6476C95.4776 77.8523 94.537 77.5899 93.8386 77.5098C93.7753 77.5032 93.7139 77.4841 93.658 77.4536C93.6021 77.4232 93.5528 77.3819 93.513 77.3323C93.4732 77.2826 93.4436 77.2256 93.4259 77.1644C93.4083 77.1033 93.4029 77.0392 93.4102 76.976C93.4175 76.9128 93.4372 76.8516 93.4683 76.796C93.4993 76.7405 93.5411 76.6916 93.5912 76.6523C93.6412 76.613 93.6986 76.584 93.7599 76.567C93.8213 76.55 93.8854 76.5454 93.9485 76.5533C95.2456 76.7022 96.2317 77.2465 96.8003 78.1248C96.8473 78.1975 96.8739 78.2815 96.8772 78.368C96.8804 78.4546 96.8603 78.5404 96.8189 78.6164C96.7775 78.6925 96.7164 78.756 96.6419 78.8002C96.5675 78.8444 96.4825 78.8677 96.3959 78.8677H96.3963ZM109.174 75.9216C109.087 75.9215 109.002 75.8982 108.928 75.854C108.854 75.8098 108.793 75.7464 108.751 75.6705C108.71 75.5946 108.69 75.5089 108.693 75.4225C108.696 75.3361 108.722 75.2521 108.769 75.1794C109.286 74.3778 109.793 73.5371 110.279 72.6806C110.31 72.6252 110.351 72.5764 110.401 72.537C110.451 72.4977 110.508 72.4686 110.569 72.4515C110.631 72.4343 110.694 72.4294 110.757 72.4371C110.821 72.4448 110.881 72.4649 110.937 72.4962C110.992 72.5275 111.04 72.5694 111.079 72.6195C111.118 72.6697 111.147 72.727 111.164 72.7883C111.18 72.8496 111.185 72.9135 111.177 72.9765C111.169 73.0395 111.148 73.1003 111.116 73.1553C110.622 74.0276 110.105 74.8839 109.579 75.7007C109.535 75.7688 109.475 75.8249 109.404 75.8636C109.333 75.9023 109.253 75.9225 109.172 75.9223L109.174 75.9216Z" fill="white"/>
<path d="M85.7246 97.0892C85.6295 97.0892 85.5366 97.0611 85.4574 97.0083C85.3783 96.9555 85.3166 96.8805 85.2801 96.7927C85.2436 96.7049 85.2339 96.6082 85.2522 96.5149C85.2706 96.4216 85.3162 96.3358 85.3832 96.2684C85.7298 95.9218 86.0666 95.5805 86.3934 95.2445C86.4825 95.1531 86.6043 95.1008 86.732 95.0992C86.8596 95.0975 86.9827 95.1467 87.0742 95.2358C87.1656 95.3249 87.2179 95.4467 87.2195 95.5743C87.2212 95.702 87.1721 95.8251 87.0829 95.9165C86.753 96.2551 86.4135 96.5991 86.0645 96.9487C86.0199 96.9933 85.9669 97.0287 85.9086 97.0528C85.8503 97.0769 85.7878 97.0893 85.7246 97.0892Z" fill="white"/>
</svg>
